<svg width="25" height="20" viewBox="0 0 25 26" fill="none" xmlns="http://www.w3.org/2000/svg">
<g clip-path="url(#clip0_87_1844)">
<path d="M1.92893 22.6296C1.02406 22.6395 0.299441 23.234 0.307396 23.96C0.315351 24.6859 1.05283 25.2645 1.95769 25.2545L6.86544 25.2008C9.57493 25.1711 11.7539 23.3833 11.7301 21.2095L11.5922 8.63018L15.3776 11.5996C16.0222 12.1053 17.06 12.0939 17.6934 11.5742C18.3268 11.0545 18.3177 10.2219 17.6731 9.71621L11.0719 4.53797C10.4272 4.03228 9.38944 4.04365 8.75603 4.56335L2.26989 9.88499C1.63648 10.4047 1.6456 11.2373 2.29025 11.743C2.9349 12.2487 3.97268 12.2373 4.60609 11.7176L8.32038 8.66603L8.45822 21.2454C8.46617 21.9713 7.74155 22.5659 6.83668 22.5758L1.92893 22.6296Z" fill="#9A6735"/>
</g>
<defs>
<clipPath id="clip0_87_1844">
<rect width="25" height="25" fill="white" transform="matrix(0.99994 -0.0109568 -0.0109568 -0.99994 0.321777 25.2725)"/>
</clipPath>
</defs>
</svg>
