<svg width="25" height="20" viewBox="0 0 25 26" fill="none" xmlns="http://www.w3.org/2000/svg">
<g clip-path="url(#clip0_87_1850)">
<path d="M1.63601 3.13782C0.731094 3.13782 0 2.55127 0 1.82526C0 1.09925 0.731094 0.512695 1.63601 0.512695H6.54406C9.25371 0.512695 11.4521 2.27645 11.4521 4.45039V17.0305L15.2047 14.0198C15.8438 13.5071 16.8816 13.5071 17.5207 14.0198C18.1598 14.5325 18.1598 15.3652 17.5207 15.8779L10.9766 21.1282C10.3376 21.6409 9.29972 21.6409 8.66065 21.1282L2.11659 15.8779C1.47753 15.3652 1.47753 14.5325 2.11659 14.0198C2.75566 13.5071 3.79351 13.5071 4.43258 14.0198L8.18007 17.0305V4.45039C8.18007 3.72438 7.44898 3.13782 6.54406 3.13782H1.63601Z" fill="#9A6735"/>
</g>
<defs>
<clipPath id="clip0_87_1850">
<rect width="25" height="26" fill="white" transform="translate(0 0.512695)"/>
</clipPath>
</defs>
</svg>
