<svg width="30" height="30" viewBox="0 0 30 30" fill="none" xmlns="http://www.w3.org/2000/svg">
<path d="M16.7636 0.647572C16.0987 1.02335 15.7246 1.35738 15.9324 1.39913C17.9689 1.85841 20.3794 2.81873 21.7924 3.77906C24.0367 5.28217 25.5744 5.32392 25.9485 3.86256C26.3225 2.44296 25.5329 1.6914 22.7483 0.731078C20.0469 -0.229244 18.4261 -0.229244 16.7636 0.647572Z" fill="#6C1D0B"/>
<path d="M27.7771 1.81657C28.068 2.1506 28.5668 2.44287 28.8577 2.44287C29.1902 2.44287 29.3148 2.19235 29.1902 1.81657C29.0239 1.48255 28.5668 1.19028 28.1096 1.19028C27.4031 1.19028 27.3615 1.31554 27.7771 1.81657Z" fill="#6C1D0B"/>
<path d="M11.6932 3.52855C11.1945 3.65381 10.197 4.36362 9.49052 5.07342L8.20215 6.40952L9.78144 6.70179C13.5634 7.36984 16.722 8.62244 17.0545 9.58276C17.1376 9.87503 17.8857 10.0838 18.8 10.042C20.4624 9.95854 21.2105 9.37399 22.0002 7.4951C22.4573 6.32601 21.7508 5.32394 19.7143 4.28011C18.426 3.61206 13.3972 3.15278 11.6932 3.52855Z" fill="#6C1D0B"/>
<path d="M27.32 5.03163C26.9875 5.36565 26.4057 5.82494 26.0317 6.0337C25.4498 6.36773 25.4083 6.57649 25.8239 7.32805C27.5278 10.376 27.9019 11.2111 28.4422 12.9647C28.7746 14.0921 29.1071 14.9689 29.2318 14.9689C29.3149 14.9689 29.5643 14.0503 29.8136 12.923C30.3124 10.5013 29.7721 6.91052 28.65 5.4074C28.0266 4.57234 27.8188 4.53059 27.32 5.03163Z" fill="#6C1D0B"/>
<path d="M23.2053 8.62235C23.2053 9.37391 22.2494 10.376 20.7533 11.211C19.6727 11.7538 19.6727 12.0879 20.6701 13.1734C22.0001 14.5931 23.2053 17.7245 23.2053 19.7287C23.2053 21.7328 23.704 22.1504 24.9093 21.1065C26.3639 19.9375 26.9457 18.3508 26.9457 15.5534C26.9457 13.2152 26.7379 12.3801 25.6158 10.3342C24.2859 7.91255 23.2053 7.16099 23.2053 8.62235Z" fill="#6C1D0B"/>
<path d="M5.95795 8.66415C5.25142 8.95642 2.50844 11.7539 1.22007 13.5075C0.887591 13.9668 0.513548 15.2611 0.056385 17.5993C-0.234537 19.0607 0.638229 22.2339 1.80192 24.1546C3.00717 26.0335 5.95795 28.6639 7.24632 28.9979C7.7866 29.1232 8.36844 29.4155 8.49313 29.6242C8.61781 29.833 10.1971 30 12.0257 30C15.8077 30 16.4727 29.7077 19.5897 26.5762C21.9587 24.1963 22.5821 22.4844 22.0002 19.8957C21.3353 16.8895 19.7144 13.7163 18.8416 13.7163C18.6338 13.7163 18.1351 14.0085 17.7195 14.4261C17.1377 14.9689 16.9714 14.9689 16.9299 14.5096C16.9299 14.1756 16.8883 13.2987 16.8467 12.5054C16.7636 11.1693 16.5558 10.9606 14.27 9.83323C11.6517 8.53889 7.5788 7.95434 5.95795 8.66415ZM9.69837 13.2987C9.82305 13.5075 10.4049 13.7163 10.9036 13.7163C12.0257 13.7163 15.3506 16.806 16.348 18.7267C17.0545 20.0628 17.2623 23.403 16.7636 24.9479C16.3896 26.1587 14.0206 27.4948 12.2336 27.4948C7.74504 27.4948 2.84092 22.5679 2.84092 18.1004C2.84092 16.1797 4.17085 14.0085 5.70859 13.3823C7.12164 12.8395 9.36589 12.756 9.69837 13.2987Z" fill="#6C1D0B"/>
<path d="M10.4048 17.7663C10.6126 18.8519 11.9841 18.9772 11.9841 17.9333C11.9841 17.307 11.7347 17.0565 11.1113 17.0565C10.5295 17.0565 10.3217 17.2653 10.4048 17.7663Z" fill="#6C1D0B"/>
<path d="M5.75 18.2674C5.75 19.0607 6.70589 19.7287 7.16305 19.2695C7.74489 18.6432 7.37085 17.4741 6.58121 17.4741C6.04092 17.4741 5.75 17.7663 5.75 18.2674Z" fill="#6C1D0B"/>
<path d="M10.1553 22.0252C9.78129 22.6097 10.3216 23.7371 10.9865 23.7371C11.319 23.7371 11.5684 23.4865 11.5684 23.1525C11.5684 22.401 10.4878 21.4824 10.1553 22.0252Z" fill="#6C1D0B"/>
<path d="M13.231 22.9437C13.231 23.1525 13.4388 23.236 13.6466 23.1107C13.8959 22.9854 14.0622 22.7767 14.0622 22.6514C14.0622 22.5679 13.8959 22.4844 13.6466 22.4844C13.4388 22.4844 13.231 22.6932 13.231 22.9437Z" fill="#6C1D0B"/>
</svg>
