<svg width="18" height="18" viewBox="0 0 18 18" fill="none" xmlns="http://www.w3.org/2000/svg">
<path fill-rule="evenodd" clip-rule="evenodd" d="M15.4614 12.1421C15.4165 12.1902 15.3626 12.229 15.3027 12.2562C15.2428 12.2834 15.1781 12.2985 15.1124 12.3007C15.0467 12.3028 14.9812 12.292 14.9196 12.2688C14.8581 12.2456 14.8017 12.2105 14.7538 12.1655L8.92417 6.70827L3.46793 12.5388C3.423 12.5868 3.36906 12.6255 3.30919 12.6526C3.24931 12.6798 3.18467 12.6949 3.11897 12.6971C3.05326 12.6992 2.98777 12.6885 2.92623 12.6653C2.86469 12.6422 2.80831 12.6071 2.76031 12.5622C2.71231 12.5173 2.67363 12.4634 2.64648 12.4035C2.61933 12.3436 2.60423 12.279 2.60206 12.2133C2.59989 12.1476 2.61068 12.0821 2.63381 12.0205C2.65695 11.959 2.69198 11.9026 2.73691 11.8546L8.53529 5.65955C8.58017 5.61147 8.6341 5.57273 8.69398 5.54553C8.75385 5.51833 8.81851 5.50321 8.88424 5.50103C8.94997 5.49886 9.01549 5.50967 9.07703 5.53286C9.13858 5.55604 9.19494 5.59114 9.2429 5.63614L15.438 11.4345C15.486 11.4794 15.5248 11.5333 15.552 11.5932C15.5792 11.6531 15.5943 11.7177 15.5965 11.7835C15.5987 11.8492 15.5878 11.9147 15.5647 11.9763C15.5415 12.0378 15.5064 12.0942 15.4614 12.1421Z" fill="black"/>
</svg>
