<svg width="30" height="30" viewBox="0 0 30 30" fill="none" xmlns="http://www.w3.org/2000/svg">
<path d="M6.64099 0.327646C5.97689 0.511946 5.18827 0.94198 4.93923 1.31058C4.64869 1.74061 3.98459 2.66212 3.44501 3.39932C0.830123 6.90102 0 10.0956 0 16.4232C0 21.3379 0.0830123 21.8908 1.3697 24.7782C3.44501 29.4471 4.64869 30 13.0329 30C18.9268 30 20.1305 29.8157 21.5417 28.7713C22.4548 28.157 23.4925 27.2355 23.8245 26.8055C24.7377 25.6382 26.1489 22.5051 26.4809 20.9079C26.813 19.4949 27.3941 19.1263 27.6431 20.1092C27.7261 20.4164 28.0167 20.785 28.3487 20.9079C28.8053 21.0307 28.9298 20.4778 28.8468 18.5734C28.8053 17.1604 28.9298 15.8089 29.1788 15.6246C29.4694 15.3174 29.4694 14.7031 29.1373 13.7201C28.7638 12.4915 28.8053 12 29.3449 11.0785C30.3825 9.35836 30.2165 8.92833 28.6393 9.35836C27.3111 9.72696 27.1865 9.66553 26.73 7.57679C26.1074 4.68942 23.8245 1.18771 22.0813 0.511946C20.7531 -0.102388 9.08985 -0.163822 6.64099 0.327646ZM10.7086 5.36519C13.4065 8.86689 13.282 19.1877 10.5426 23.2423C7.96918 27.0512 6.01839 27.2969 4.0261 24.1024C2.61489 21.7679 2.49037 21.1536 2.61489 14.7645C2.6979 10.7713 3.61104 7.69966 5.3958 5.36519C6.80701 3.52218 9.25588 3.52218 10.7086 5.36519ZM23.0359 5.24232C23.4095 5.85666 23.866 6.96246 24.0321 7.69966C24.2396 8.80546 24.1151 9.11263 23.534 9.11263C18.7193 9.35836 15.3988 9.11263 14.9007 8.49829C14.1951 7.63823 13.697 4.75085 14.1951 4.25939C14.4441 4.07509 16.3534 3.95222 18.4702 4.01365C21.5417 4.13652 22.4963 4.38225 23.0359 5.24232Z" fill="#6C1D0B"/>
<path d="M9.17285 8.314C8.59176 9.11264 8.88231 10.3413 9.62942 10.3413C10.7086 10.3413 11.0406 9.66554 10.501 8.68261C9.96147 7.82254 9.58791 7.69967 9.17285 8.314Z" fill="#6C1D0B"/>
<path d="M4.02613 14.396C3.69408 15.7475 4.64872 17.0376 5.1468 15.8704C5.35433 15.3789 5.56186 14.5803 5.56186 14.1503C5.56186 13.1059 4.31667 13.2288 4.02613 14.396Z" fill="#6C1D0B"/>
<path d="M6.0184 21.7679C6.0184 22.4437 6.14291 22.628 6.26743 22.1365C6.39195 21.7065 6.35044 21.1536 6.22593 20.9693C6.10141 20.7235 5.97689 21.0921 6.0184 21.7679Z" fill="#6C1D0B"/>
</svg>
