<svg width="30" height="30" viewBox="0 0 30 30" fill="none" xmlns="http://www.w3.org/2000/svg">
<path d="M0.552364 0.685343C0.132284 1.14515 -0.0357482 2.44096 0.00625982 4.73998C0.0482679 7.83321 0.2163 8.37662 1.47654 10.4248C2.23269 11.6789 3.19887 13.1001 3.61895 13.5181C4.50112 14.4795 4.54313 15.1483 3.871 16.2351C3.24088 17.2801 3.70297 18.2833 5.04723 18.6177C5.84538 18.8267 6.26546 18.7013 6.55951 18.1997C7.10562 17.1965 7.77775 17.3637 10.3402 18.9939C12.2306 20.2061 12.7347 20.8331 13.3648 22.5052C14.247 24.9714 15.0871 25.5148 15.4652 23.7592C15.7593 22.338 16.2214 22.2544 19.414 23.2576L21.7244 23.9682L21.4304 27.0196C21.1783 30.4472 21.5984 30.9906 22.4386 28.2736C22.7746 27.3122 23.4047 25.9746 23.9088 25.3476C24.791 24.0936 27.6896 22.547 29.1178 22.547C29.6219 22.547 30 22.2544 30 21.92C30 21.1675 29.6219 21.1675 26.4713 21.7527C23.6568 22.2544 23.0687 21.9618 22.7326 19.9135C22.6066 19.1611 22.3545 18.0743 22.2285 17.4891C21.9765 16.5277 22.1025 16.3187 23.3207 15.9007C24.623 15.4409 24.665 15.3991 23.9088 14.6049C23.4888 14.1451 22.6486 13.7689 22.0185 13.7689C19.9601 13.7689 19.288 12.4731 19.414 8.66922C19.498 6.203 19.372 5.19979 18.9939 4.94898C18.6998 4.73998 17.1875 4.57278 15.6333 4.57278C13.9949 4.57278 12.7767 4.40558 12.7767 4.15478C12.7767 3.90397 12.4826 3.73677 12.1466 3.73677C11.8105 3.73677 11.5165 3.56957 11.5165 3.36057C11.5165 2.77536 8.82795 1.35415 6.39148 0.601742C3.53494 -0.234266 1.2665 -0.192466 0.552364 0.685343ZM2.69477 3.40237C2.69477 3.82037 2.90481 4.07118 3.11486 3.94577C3.3669 3.82037 3.53494 3.31877 3.53494 2.85896C3.53494 1.89755 3.49293 1.89755 5.13124 2.60816C6.4755 3.15157 8.99598 6.203 8.99598 7.20621C8.99598 7.95861 7.39968 9.42163 6.01341 9.92323C4.66915 10.4666 2.69477 10.0904 2.69477 9.33803C2.69477 9.00362 2.52674 8.75282 2.27469 8.75282C1.43453 8.75282 0.510356 2.69176 1.30851 1.93935C1.72859 1.47955 2.69477 2.48276 2.69477 3.40237ZM18.4478 6.2448C18.4478 7.08081 15.7173 7.37341 15.2552 6.5792C14.5831 5.57599 14.8771 5.36699 16.6835 5.49239C17.9017 5.57599 18.4478 5.82679 18.4478 6.2448ZM18.2378 8.12582C18.2378 8.46022 17.9857 8.75282 17.6496 8.75282C17.3136 8.75282 16.9775 8.46022 16.8095 8.12582C16.6414 7.70781 16.8515 7.49881 17.3976 7.49881C17.8597 7.49881 18.2378 7.79141 18.2378 8.12582ZM12.5247 10.174C16.0533 13.9361 17.2296 15.2737 18.4058 17.0293C19.0779 17.9907 19.792 18.7849 19.9601 18.7849C20.1701 18.7849 20.3382 18.9939 20.3382 19.2447C20.3382 19.4955 20.6322 19.9553 20.9683 20.2897C21.7244 21.0839 21.8084 22.547 21.0943 22.547C20.4222 22.547 16.7675 21.1675 15.0871 20.2897C14.415 19.9135 13.5749 19.6209 13.3228 19.6209C13.0288 19.6209 12.7767 19.4119 12.7767 19.2029C12.7767 18.9521 12.5667 18.7849 12.3566 18.7849C11.7685 18.7849 9.50008 17.1965 8.28184 15.9425C7.77775 15.4409 7.27365 15.0229 7.14763 15.0229C6.72755 15.0229 3.95502 12.0969 3.95502 11.6789C3.95502 11.428 4.58514 11.2608 5.38329 11.2608C6.13943 11.2608 7.0216 10.9682 7.31566 10.6338C7.60972 10.2994 8.11381 10.0068 8.40787 10.0068C8.74393 10.0068 8.99598 9.75603 8.99598 9.42163C8.99598 8.87822 9.54209 8.46022 10.4243 8.37662C10.5923 8.33482 11.5585 9.17083 12.5247 10.174Z" fill="#6C1D0B"/>
<path d="M9.70986 11.7625C9.41581 12.6821 9.8779 13.7271 10.7181 13.9779C11.1381 14.1451 11.5162 14.4378 11.5162 14.6468C11.5162 14.8558 11.8103 15.023 12.1463 15.023C12.4824 15.023 12.7765 15.1484 12.7765 15.3156C12.7765 15.5246 13.5746 16.277 14.4988 17.0712C16.4732 18.6596 17.5654 18.367 16.1371 16.6114C15.675 15.9844 15.2969 15.3992 15.2969 15.232C15.2969 15.1066 14.4988 14.1451 13.5326 13.1001C11.8103 11.3027 10.0879 10.6757 9.70986 11.7625Z" fill="#6C1D0B"/>
</svg>
