<svg width="10" height="10" viewBox="0 0 10 10" fill="none" xmlns="http://www.w3.org/2000/svg">
<path d="M5.76923 0.769231C5.76923 0.34375 5.42548 0 5 0C4.57452 0 4.23077 0.34375 4.23077 0.769231V4.23077H0.769231C0.34375 4.23077 0 4.57452 0 5C0 5.42548 0.34375 5.76923 0.769231 5.76923H4.23077V9.23077C4.23077 9.65625 4.57452 10 5 10C5.42548 10 5.76923 9.65625 5.76923 9.23077V5.76923H9.23077C9.65625 5.76923 10 5.42548 10 5C10 4.57452 9.65625 4.23077 9.23077 4.23077H5.76923V0.769231Z" fill="#6C1D0B"/>
</svg>
