<svg width="25" height="25" viewBox="0 0 17 16" fill="none" xmlns="http://www.w3.org/2000/svg">
<path d="M9.40287 2C6.74662 2 4.03745 3.65039 3.5062 6.15039C3.18745 7.65039 3.61307 9.0498 2.28495 9.0498C1.70057 9.0498 1.32787 9.70039 1.69974 10.1504C2.44349 11.1004 3.45349 11.65 4.46287 12L4.78971 12.123C4.77085 12.2969 4.79093 12.4725 4.84865 12.6386C4.90638 12.8047 5.00046 12.9575 5.12482 13.0873C5.24919 13.217 5.40108 13.3208 5.57069 13.3919C5.7403 13.463 5.92387 13.4998 6.10953 13.5C6.41528 13.4995 6.71149 13.3998 6.94815 13.2176C7.18482 13.0354 7.34746 12.7819 7.40861 12.5H9.50974H9.59067C9.65186 12.7821 9.81465 13.0357 10.0515 13.2179C10.2884 13.4001 10.5849 13.4997 10.8908 13.5C11.1012 13.5 11.3087 13.4529 11.496 13.3626C11.6833 13.2723 11.8451 13.1414 11.9681 12.9807C12.0911 12.82 12.1718 12.6341 12.2035 12.4383C12.2352 12.2425 12.217 12.0424 12.1504 11.8545C14.3762 10.7894 15.6129 8.66893 15.1937 6.40039C14.875 3.85039 12.2185 2 9.40287 2ZM9.40287 3C11.7935 3 13.9191 4.55039 14.291 6.65039C14.6097 8.45039 13.6 10.1998 11.7406 11.0498L11.4999 11.1406C11.3117 11.0487 11.1028 11.0004 10.8908 11C10.6848 11.0002 10.4816 11.0454 10.2974 11.1322C10.1132 11.219 9.95293 11.3449 9.82932 11.5H9.82828H9.61558H7.38474C7.31974 11.5 7.23624 11.492 7.16166 11.4893C7.03782 11.3373 6.87855 11.2142 6.69613 11.1293C6.5137 11.0445 6.31301 11.0002 6.10953 11C5.8514 11.0005 5.599 11.0717 5.38321 11.2051C5.37765 11.2034 5.37108 11.2019 5.36558 11.2002L4.88724 11.0498C4.14349 10.7998 3.5062 10.4502 2.97495 9.9502C4.24995 9.6002 4.35682 8.20039 4.40995 7.40039C4.46307 7.05039 4.46266 6.69961 4.51578 6.34961C4.99391 4.24961 7.33099 3 9.40287 3ZM7.70328 5.5C7.49194 5.5 7.28925 5.57902 7.13981 5.71967C6.99036 5.86032 6.90641 6.05109 6.90641 6.25C6.90641 6.44891 6.99036 6.63968 7.13981 6.78033C7.28925 6.92098 7.49194 7 7.70328 7C7.91463 7 8.11732 6.92098 8.26676 6.78033C8.4162 6.63968 8.50016 6.44891 8.50016 6.25C8.50016 6.05109 8.4162 5.86032 8.26676 5.71967C8.11732 5.57902 7.91463 5.5 7.70328 5.5ZM10.8908 5.5C10.6794 5.5 10.4768 5.57902 10.3273 5.71967C10.1779 5.86032 10.0939 6.05109 10.0939 6.25C10.0939 6.44891 10.1779 6.63968 10.3273 6.78033C10.4768 6.92098 10.6794 7 10.8908 7C11.1021 7 11.3048 6.92098 11.4543 6.78033C11.6037 6.63968 11.6877 6.44891 11.6877 6.25C11.6877 6.05109 11.6037 5.86032 11.4543 5.71967C11.3048 5.57902 11.1021 5.5 10.8908 5.5ZM7.22806 7.48926C7.19486 7.48457 7.15896 7.4875 7.11912 7.5C6.95974 7.55 6.85328 7.6498 6.90641 7.7998C7.17203 8.9498 8.34078 9.5 9.29703 9.5C10.2533 9.5 11.422 8.9498 11.6877 7.7998C11.6877 7.6498 11.6343 7.55 11.475 7.5C11.3156 7.5 11.2095 7.5502 11.1564 7.7002C10.9439 8.6002 10.0408 9 9.29703 9C8.55328 9 7.65016 8.6002 7.43766 7.7002C7.39781 7.5877 7.32767 7.50332 7.22806 7.48926Z" fill="#dddddd"/>
</svg>
