<svg width="30" height="30" viewBox="0 0 30 30" fill="none" xmlns="http://www.w3.org/2000/svg">
<path d="M5.52632 0.77034C5.36842 1.15551 4.73684 1.54068 4.15789 1.54068C3.57895 1.54068 3 2.07992 2.84211 2.69619C2.63158 3.31247 1.94737 3.8517 1.26316 3.8517C0.473684 3.8517 0 4.31391 0 5.00722C0 6.70197 1.47368 7.31824 3.15789 6.39383C4 5.93163 4.94737 5.85459 5.31579 6.23976C5.84211 6.70197 5.73684 6.93307 4.89474 6.93307C3.63158 6.93307 1.57895 10.5537 1.57895 12.7106C1.57895 14.3283 4.42105 21.2614 6 23.5724C6.57895 24.4968 8.52632 26.3457 10.2632 27.6552C13 29.8122 13.8421 30.1203 17.1053 29.9663C19.6316 29.8892 21.4737 29.273 22.8947 28.1945C25.0526 26.6538 26.8421 24.1887 26.8421 22.9562C26.8421 22.571 27.2105 21.7236 27.6316 21.1073C28.3158 20.0289 28.4211 20.1059 28.4211 21.8777C28.4211 23.1102 28.7368 23.8806 29.2105 23.8806C29.6316 23.8806 30 23.1873 30 22.3399C30 21.4925 29.8421 20.7992 29.6316 20.7992C29.3684 20.7992 29.1579 20.0289 29.1053 19.0274C28.9474 16.7164 28.5789 12.7877 28.4737 12.4025C28.4737 12.2484 28.0526 12.5566 27.5789 13.1728C27.0526 13.7891 26.8421 14.9446 26.9474 16.3312C27.1053 17.4867 27 18.4882 26.7368 18.4882C26.5263 18.4882 26.3158 18.103 26.3158 17.6408C26.3158 16.1001 24 13.9432 22.3684 13.9432C21.5263 13.9432 20.3158 14.4054 19.7895 15.0216C18.0526 16.9475 15.1053 16.4853 13.2105 14.0202C12.2632 12.8647 11.2632 11.0159 10.8947 10.0144C10.5263 8.93596 9.31579 7.47231 8.21053 6.70197C6.68421 5.62349 6.31579 5.00722 6.57895 4.00577C7.47368 0.924408 7.47368 -1.12857e-06 6.68421 -1.12857e-06C6.21053 -1.12857e-06 5.68421 0.308135 5.52632 0.77034ZM6.05263 16.1772C6.57895 18.7963 11.0526 25.4213 12.2632 25.4213C12.7895 25.4213 13.0526 25.7294 12.8947 26.1916C12.6842 26.6538 13.6316 26.9619 15.3158 26.9619C18.4737 26.9619 18.5789 27.6552 15.4211 27.8863C12.8947 27.9634 9 25.3442 6.94737 22.0318C4.89474 18.6423 3.05263 13.2499 3.84211 12.8647C4.63158 12.4795 5.57895 13.8661 6.05263 16.1772Z" fill="#6C1D0B"/>
</svg>
