<svg width="50" height="65" viewBox="0 0 63 75" fill="none" xmlns="http://www.w3.org/2000/svg">
<g clip-path="url(#clip0_112_140)">
<path d="M35.3883 73.125C43.8047 63.7207 63 40.9277 63 28.125C63 12.5977 48.8906 0 31.5 0C14.1094 0 0 12.5977 0 28.125C0 40.9277 19.1953 63.7207 27.6117 73.125C29.6297 75.3662 33.3703 75.3662 35.3883 73.125ZM31.5 18.75C34.2848 18.75 36.9555 19.7377 38.9246 21.4959C40.8938 23.254 42 25.6386 42 28.125C42 30.6114 40.8938 32.996 38.9246 34.7541C36.9555 36.5123 34.2848 37.5 31.5 37.5C28.7152 37.5 26.0445 36.5123 24.0754 34.7541C22.1062 32.996 21 30.6114 21 28.125C21 25.6386 22.1062 23.254 24.0754 21.4959C26.0445 19.7377 28.7152 18.75 31.5 18.75Z" fill="#AC331A"/>
</g>
<defs>
<clipPath id="clip0_112_140">
<rect width="63" height="75" fill="white"/>
</clipPath>
</defs>
</svg>
