<svg width="197" height="68" viewBox="0 0 197 68" fill="none" xmlns="http://www.w3.org/2000/svg">
<path d="M11.256 16.4645C14.112 16.4645 16.3707 17.1832 18.032 18.6205C19.6933 20.0392 20.524 22.0738 20.524 24.7245H14.616C14.616 23.6045 14.3173 22.7178 13.72 22.0645C13.1413 21.4112 12.3107 21.0845 11.228 21.0845C9.97733 21.0845 9.05333 21.4765 8.456 22.2605C7.87733 23.0445 7.588 24.1365 7.588 25.5365V27.3285C7.588 28.7098 7.87733 29.8018 8.456 30.6045C9.05333 31.3885 9.95867 31.7805 11.172 31.7805C12.3667 31.7805 13.272 31.4725 13.888 30.8565C14.504 30.2405 14.812 29.3725 14.812 28.2525H20.524C20.524 30.8845 19.712 32.9005 18.088 34.3005C16.4827 35.7005 14.2053 36.4005 11.256 36.4005C7.97067 36.4005 5.47867 35.5605 3.78 33.8805C2.1 32.2005 1.26 29.7178 1.26 26.4325C1.26 23.1472 2.1 20.6645 3.78 18.9845C5.47867 17.3045 7.97067 16.4645 11.256 16.4645ZM31.117 20.9445C33.7116 20.9445 35.7463 21.6072 37.221 22.9325C38.7143 24.2392 39.461 26.1525 39.461 28.6725C39.461 31.1925 38.7143 33.1152 37.221 34.4405C35.7463 35.7472 33.7116 36.4005 31.117 36.4005C28.5223 36.4005 26.4876 35.7472 25.013 34.4405C23.5383 33.1338 22.801 31.2112 22.801 28.6725C22.801 26.1338 23.5383 24.2112 25.013 22.9045C26.4876 21.5978 28.5223 20.9445 31.117 20.9445ZM31.117 24.7245C29.2876 24.7245 28.373 25.7792 28.373 27.8885V29.4845C28.373 31.5752 29.2876 32.6205 31.117 32.6205C32.965 32.6205 33.889 31.5752 33.889 29.4845V27.8885C33.889 25.7792 32.965 24.7245 31.117 24.7245ZM51.1368 20.9165C51.5661 20.9165 51.9488 20.9725 52.2848 21.0845C52.6208 21.1778 52.7888 21.2338 52.7888 21.2525V25.9285H50.9968C49.8394 25.9285 48.9994 26.2272 48.4768 26.8245C47.9728 27.4218 47.7208 28.3085 47.7208 29.4845V36.0645H42.1488V21.2805H46.7128L47.0768 23.5205C47.4128 22.6618 47.9448 22.0178 48.6728 21.5885C49.4008 21.1405 50.2221 20.9165 51.1368 20.9165ZM65.8407 21.2805V25.0605H62.7047V30.6885C62.7047 31.3605 62.8167 31.8552 63.0407 32.1725C63.2647 32.4712 63.6754 32.6205 64.2727 32.6205H65.8407V35.8965C65.3927 36.0458 64.814 36.1672 64.1047 36.2605C63.3954 36.3538 62.7794 36.4005 62.2567 36.4005C60.614 36.4005 59.3447 36.1018 58.4487 35.5045C57.5714 34.9072 57.1327 33.8898 57.1327 32.4525V25.0605H55.0607V21.2805H57.3567L58.5607 16.8005H62.7047V21.2805H65.8407ZM76.0701 20.9445C78.7768 20.9445 80.8394 21.5792 82.2581 22.8485C83.6954 24.1178 84.4141 26.0592 84.4141 28.6725V29.6245H73.3261C73.3261 30.6885 73.5594 31.4912 74.0261 32.0325C74.5114 32.5738 75.2674 32.8445 76.2941 32.8445C77.2274 32.8445 77.9088 32.6485 78.3381 32.2565C78.7861 31.8645 79.0101 31.3418 79.0101 30.6885H84.4141C84.4141 32.4805 83.7328 33.8805 82.3701 34.8885C81.0074 35.8965 79.0194 36.4005 76.4061 36.4005C73.6621 36.4005 71.5341 35.7658 70.0221 34.4965C68.5101 33.2085 67.7541 31.2672 67.7541 28.6725C67.7541 26.1338 68.4914 24.2112 69.9661 22.9045C71.4408 21.5978 73.4754 20.9445 76.0701 20.9445ZM76.2941 24.5005C74.5394 24.5005 73.5594 25.3312 73.3541 26.9925H78.7861C78.7861 26.2272 78.5621 25.6205 78.1141 25.1725C77.6848 24.7245 77.0781 24.5005 76.2941 24.5005ZM94.1299 20.9445C96.1085 20.9445 97.7792 21.3365 99.1419 22.1205C100.523 22.8858 101.214 24.0805 101.214 25.7045H96.0339C96.0339 25.1632 95.7912 24.7805 95.3059 24.5565C94.9699 24.3698 94.5499 24.2765 94.0459 24.2765C92.7019 24.2765 92.0299 24.5938 92.0299 25.2285C92.0299 25.5832 92.2632 25.8352 92.7299 25.9845C93.1965 26.1338 93.9619 26.2925 95.0259 26.4605C96.3325 26.6472 97.4245 26.8712 98.3019 27.1325C99.1792 27.3752 99.9445 27.8232 100.598 28.4765C101.251 29.1112 101.578 30.0072 101.578 31.1645C101.578 33.0498 100.869 34.3938 99.4499 35.1965C98.0499 35.9992 96.2112 36.4005 93.9339 36.4005C92.6272 36.4005 91.3952 36.2232 90.2379 35.8685C89.0805 35.4952 88.1379 34.9258 87.4099 34.1605C86.6819 33.3952 86.3179 32.4245 86.3179 31.2485H91.4979V31.3605C91.5165 31.9952 91.7779 32.4432 92.2819 32.7045C92.8045 32.9472 93.3552 33.0685 93.9339 33.0685C95.4832 33.0685 96.2579 32.7045 96.2579 31.9765C96.2579 31.6032 96.0152 31.3325 95.5299 31.1645C95.0445 30.9965 94.2512 30.8192 93.1499 30.6325C91.8245 30.4085 90.7325 30.1658 89.8739 29.9045C89.0339 29.6432 88.2965 29.2045 87.6619 28.5885C87.0272 27.9538 86.7099 27.0765 86.7099 25.9565C86.7099 24.1458 87.3912 22.8578 88.7539 22.0925C90.1352 21.3272 91.9272 20.9445 94.1299 20.9445ZM15.848 66.0645L7.756 56.7125V66.0645H2.072V46.8005H7.476L15.568 56.2925V46.8005H21.252V66.0645H15.848ZM32.6482 50.9445C35.2429 50.9445 37.2776 51.6072 38.7522 52.9325C40.2456 54.2392 40.9922 56.1525 40.9922 58.6725C40.9922 61.1925 40.2456 63.1152 38.7522 64.4405C37.2776 65.7472 35.2429 66.4005 32.6482 66.4005C30.0536 66.4005 28.0189 65.7472 26.5442 64.4405C25.0696 63.1338 24.3322 61.2112 24.3322 58.6725C24.3322 56.1338 25.0696 54.2112 26.5442 52.9045C28.0189 51.5978 30.0536 50.9445 32.6482 50.9445ZM32.6482 54.7245C30.8189 54.7245 29.9042 55.7792 29.9042 57.8885V59.4845C29.9042 61.5752 30.8189 62.6205 32.6482 62.6205C34.4962 62.6205 35.4202 61.5752 35.4202 59.4845V57.8885C35.4202 55.7792 34.4962 54.7245 32.6482 54.7245ZM49.28 52.6525C50.344 51.5138 51.7253 50.9445 53.424 50.9445C55.4213 50.9445 56.9613 51.5978 58.044 52.9045C59.1267 54.1925 59.668 56.1058 59.668 58.6445C59.668 61.2018 59.1267 63.1338 58.044 64.4405C56.9613 65.7472 55.4213 66.4005 53.424 66.4005C51.3707 66.4005 49.8027 65.5885 48.72 63.9645L48.244 66.0645H43.708V45.7645H49.28V52.6525ZM51.688 55.0605C50.8667 55.0605 50.2507 55.3592 49.84 55.9565C49.4293 56.5352 49.224 57.2912 49.224 58.2245V59.1485C49.224 60.0818 49.4293 60.8378 49.84 61.4165C50.2507 61.9952 50.8667 62.2845 51.688 62.2845C53.2933 62.2845 54.096 61.3325 54.096 59.4285V57.9445C54.096 56.0218 53.2933 55.0605 51.688 55.0605ZM71.3438 50.9165C71.7731 50.9165 72.1558 50.9725 72.4918 51.0845C72.8278 51.1778 72.9958 51.2338 72.9958 51.2525V55.9285H71.2038C70.0464 55.9285 69.2064 56.2272 68.6838 56.8245C68.1798 57.4218 67.9278 58.3085 67.9278 59.4845V66.0645H62.3558V51.2805H66.9198L67.2838 53.5205C67.6198 52.6618 68.1518 52.0178 68.8798 51.5885C69.6078 51.1405 70.4291 50.9165 71.3438 50.9165ZM82.8787 50.9445C85.5854 50.9445 87.648 51.5792 89.0667 52.8485C90.504 54.1178 91.2227 56.0592 91.2227 58.6725V59.6245H80.1347C80.1347 60.6885 80.368 61.4912 80.8347 62.0325C81.32 62.5738 82.076 62.8445 83.1027 62.8445C84.036 62.8445 84.7174 62.6485 85.1467 62.2565C85.5947 61.8645 85.8187 61.3418 85.8187 60.6885H91.2227C91.2227 62.4805 90.5414 63.8805 89.1787 64.8885C87.816 65.8965 85.828 66.4005 83.2147 66.4005C80.4707 66.4005 78.3427 65.7658 76.8307 64.4965C75.3187 63.2085 74.5627 61.2672 74.5627 58.6725C74.5627 56.1338 75.3 54.2112 76.7747 52.9045C78.2494 51.5978 80.284 50.9445 82.8787 50.9445ZM83.1027 54.5005C81.348 54.5005 80.368 55.3312 80.1627 56.9925H85.5947C85.5947 56.2272 85.3707 55.6205 84.9227 55.1725C84.4934 54.7245 83.8867 54.5005 83.1027 54.5005ZM100.938 50.9445C102.917 50.9445 104.588 51.3365 105.95 52.1205C107.332 52.8858 108.022 54.0805 108.022 55.7045H102.842C102.842 55.1632 102.6 54.7805 102.114 54.5565C101.778 54.3698 101.358 54.2765 100.854 54.2765C99.5105 54.2765 98.8385 54.5938 98.8385 55.2285C98.8385 55.5832 99.0718 55.8352 99.5385 55.9845C100.005 56.1338 100.77 56.2925 101.834 56.4605C103.141 56.6472 104.233 56.8712 105.11 57.1325C105.988 57.3752 106.753 57.8232 107.406 58.4765C108.06 59.1112 108.386 60.0072 108.386 61.1645C108.386 63.0498 107.677 64.3938 106.258 65.1965C104.858 65.9992 103.02 66.4005 100.742 66.4005C99.4358 66.4005 98.2038 66.2232 97.0465 65.8685C95.8891 65.4952 94.9465 64.9258 94.2185 64.1605C93.4905 63.3952 93.1265 62.4245 93.1265 61.2485H98.3065V61.3605C98.3251 61.9952 98.5865 62.4432 99.0905 62.7045C99.6131 62.9472 100.164 63.0685 100.742 63.0685C102.292 63.0685 103.066 62.7045 103.066 61.9765C103.066 61.6032 102.824 61.3325 102.338 61.1645C101.853 60.9965 101.06 60.8192 99.9585 60.6325C98.6331 60.4085 97.5411 60.1658 96.6825 59.9045C95.8425 59.6432 95.1051 59.2045 94.4705 58.5885C93.8358 57.9538 93.5185 57.0765 93.5185 55.9565C93.5185 54.1458 94.1998 52.8578 95.5625 52.0925C96.9438 51.3272 98.7358 50.9445 100.938 50.9445Z" fill="#393939"/>
<rect x="5.79395" y="41.6774" width="101.976" height="1.09678" fill="#333333"/>
<path d="M116.099 23.9851C116.21 23.4883 115.783 23.0972 115.146 23.1119C114.51 23.1271 113.904 23.542 113.793 24.039C113.682 24.5363 114.109 24.9272 114.745 24.9127C115.382 24.8977 115.988 24.4826 116.099 23.9851ZM108.683 37.2236C109.191 35.0242 109.701 32.8246 110.21 30.6247C110.662 28.6699 111.073 26.7209 111.616 24.7695C111.81 24.0729 112.106 23.3547 112.706 22.7511C113.498 21.9554 114.604 21.6749 115.713 21.7066C133.12 21.6293 147.708 21.4759 159.052 21.2445L155.975 35.0552C149.419 35.5913 140.532 36.1983 130.784 36.6176C122.428 36.9894 114.771 37.1602 108.683 37.2236Z" fill="#393939"/>
<path d="M110.001 39.8968C109.749 39.8981 109.321 39.8691 109.047 39.6376C108.742 39.3781 108.816 38.8853 108.849 38.5908C108.877 38.3426 108.944 38.1294 108.944 38.1294C108.953 38.0923 108.961 38.0557 108.969 38.0193C115.03 38.2862 122.714 38.3979 131.175 38.0211C136.241 37.804 141.096 37.429 145.518 36.9993C149.688 36.5882 153.468 36.1172 156.696 35.667C156.648 35.9659 156.514 36.3819 156.126 36.7713C155.51 37.3901 154.552 37.6651 152.73 37.9312C151.391 38.1266 150.054 38.2841 148.72 38.4167C145.034 38.7821 141.348 39.1287 137.671 39.3858C134.055 39.6383 130.449 39.8173 126.858 39.9253C120.856 40.1065 115.229 40.0742 110.001 39.8968Z" fill="#393939"/>
<path d="M113.232 23.639C113.232 23.639 113.237 23.6093 113.246 23.5554C113.256 23.5025 113.279 23.4255 113.321 23.3366C113.407 23.1596 113.601 22.9328 113.901 22.7941C114.199 22.6523 114.523 22.6332 114.738 22.6665C114.847 22.6826 114.931 22.7089 114.989 22.729C115.045 22.7516 115.076 22.7648 115.076 22.7648C115.076 22.7648 115.06 22.7409 115.022 22.6997C114.982 22.661 114.918 22.6061 114.813 22.5588C114.616 22.4633 114.203 22.4108 113.787 22.6059C113.37 22.8013 113.192 23.137 113.178 23.3339C113.167 23.4364 113.182 23.5139 113.201 23.5639C113.218 23.614 113.232 23.639 113.232 23.639Z" fill="#393939"/>
<path d="M187.57 29.9297C187.252 29.9951 187.071 30.0235 187.071 30.0235C187.071 30.0235 187.245 30.0246 187.571 30.0002C187.896 29.9692 188.378 29.891 188.957 29.6992C189.535 29.5089 190.202 29.2007 190.866 28.7792C191.525 28.3545 192.191 27.8236 192.763 27.202C193.89 25.963 194.552 24.6857 194.645 23.7686C194.703 23.3119 194.626 22.9603 194.535 22.7377C194.5 22.6229 194.444 22.5439 194.416 22.4877C194.386 22.4324 194.37 22.4034 194.37 22.4034C194.37 22.4034 194.378 22.4356 194.392 22.4966C194.404 22.5586 194.436 22.6448 194.443 22.7647C194.477 22.9982 194.475 23.3483 194.349 23.7802C194.118 24.6425 193.362 25.8155 192.298 26.9876C191.763 27.5695 191.165 28.0823 190.578 28.5097C189.986 28.9332 189.396 29.2661 188.871 29.4957C188.345 29.7265 187.889 29.8569 187.57 29.9297ZM177.391 25.5594C177.272 26.095 177.732 26.5167 178.418 26.5008C179.104 26.4849 179.757 26.0372 179.877 25.5015C179.996 24.9652 179.536 24.544 178.85 24.5599C178.164 24.576 177.511 25.0234 177.391 25.5594ZM165.198 26.3952C165.078 26.9312 165.538 27.3524 166.224 27.3366C166.91 27.3207 167.564 26.8733 167.683 26.3373C167.802 25.8015 167.343 25.38 166.657 25.3959C165.97 25.4118 165.318 25.8594 165.198 26.3952ZM181.158 28.6582C178.876 28.7398 176.596 28.7943 174.304 28.9161C169.773 29.1563 165.121 29.6258 160.567 30.7586C160.012 30.8962 159.732 31.0211 158.882 31.2342L160.692 23.1072C175.217 22.7943 184.419 22.3502 188.229 21.7485C189.262 21.5855 193.399 20.924 194.774 22.364C195.777 23.4128 194.507 25.6867 193.615 26.8824C192.613 28.2262 191.101 29.4119 189.329 30.1492C188.974 30.297 188.607 30.4292 188.233 30.5022C188.099 30.529 187.966 30.5475 187.832 30.5569C186.197 30.6686 185.867 29.5428 184.824 29.0073C183.843 28.5045 182.394 28.6142 181.158 28.6582Z" fill="#393939"/>
<path d="M165.465 26.537C165.465 26.537 165.687 26.2496 166.061 25.9451C165.768 25.6886 165.624 25.4274 165.624 25.4274C165.624 25.4274 165.959 25.5429 166.286 25.7743C166.687 25.4917 167.063 25.3253 167.063 25.3253C167.063 25.3253 166.841 25.6121 166.467 25.9166C166.76 26.1739 166.904 26.4349 166.904 26.4349C166.904 26.4349 166.568 26.3191 166.242 26.088C165.841 26.3706 165.465 26.537 165.465 26.537Z" fill="#393939"/>
</svg>
