<svg width="160" height="100" viewBox="0 0 160 100" fill="none" xmlns="http://www.w3.org/2000/svg">
<path d="M101.708 29.5071C102.445 32.1968 102.597 34.3535 102.187 36.3801C102.493 36.556 102.805 36.7234 103.131 36.8737C105.648 38.0348 108.69 38.2141 111.49 38.3815C112.173 38.4223 112.858 38.4463 113.543 38.4463C115.91 38.4463 118.257 38.1559 120.4 37.2532C120.846 37.0656 121.126 37.0901 120.941 36.6008C120.829 36.3044 119.985 35.9867 119.698 35.8204C119.106 35.475 118.503 35.1104 117.956 34.7107C115.048 32.5806 113.574 29.3909 110.695 27.262C108.761 25.8313 106.168 24.8633 103.605 24.6746C102.953 24.6266 102.192 24.5712 101.408 24.5574C100.992 24.7333 100.562 24.8782 100.119 24.9923C100.82 26.4134 101.279 27.9411 101.708 29.5071Z" fill="#393939"/>
<path d="M54.4826 24.6747C51.9187 24.8637 49.3265 25.8313 47.3919 27.2621C44.5138 29.3909 43.0389 32.5809 40.1316 34.7107C39.5849 35.1103 38.9816 35.4752 38.3882 35.8205C38.1024 35.9871 37.2579 36.3043 37.1459 36.601C36.9611 37.0904 37.2426 37.066 37.6872 37.2541C39.8305 38.1562 42.1781 38.4463 44.5443 38.4463C45.229 38.4463 45.9148 38.4229 46.5974 38.3817C49.3971 38.2142 52.4404 38.0346 54.9565 36.8733C55.2826 36.7236 55.5956 36.5561 55.901 36.3801C55.4902 34.3542 55.6434 32.1973 56.3792 29.507C56.8075 27.9414 57.2683 26.4143 57.9693 24.9928C57.5259 24.8777 57.0944 24.7336 56.6792 24.5577C55.8945 24.5718 55.1337 24.627 54.4826 24.6747Z" fill="#393939"/>
<path d="M98.7648 14.6681C97.5658 14.8732 96.6295 15.1944 95.8352 15.659C95.1641 19.0238 95.5924 21.7784 98.2967 24.5513C99.5064 24.4795 100.703 24.126 101.689 23.5937C104.321 22.1734 106.63 20.0107 107.937 17.7642C109.555 14.9823 110.535 11.9377 110.516 8.88508C110.499 6.07084 109.9 2.83739 107.511 0.581758C107.203 0.290838 106.852 -8.58307e-05 106.562 -8.58307e-05C106.395 -8.58307e-05 106.248 0.0989151 106.143 0.351448C105.987 0.72823 106.154 1.16359 106.202 1.55452C106.291 2.2606 106.406 2.96972 106.519 3.67883C106.816 5.53344 106.551 7.26987 105.657 9.01942C105.009 10.2841 104.156 11.3286 103.031 12.369C101.766 13.5388 100.712 14.3358 98.7648 14.6681Z" fill="#393939"/>
<path d="M77.8521 67.6221H80.2346C82.905 67.6221 85.1581 66.7108 85.8776 65.4635C84.7549 65.6008 83.6245 65.6398 82.5181 65.6398C81.9279 65.6398 81.3367 65.6304 80.7487 65.6209C80.177 65.6114 79.6064 65.6019 79.0423 65.6019C78.4793 65.6019 77.9097 65.6114 77.3381 65.6209C76.749 65.6304 76.1577 65.6398 75.5675 65.6398C74.4622 65.6398 73.3307 65.6008 72.208 65.4635C72.9286 66.7108 75.1806 67.6221 77.8521 67.6221Z" fill="#393939"/>
<path d="M59.7909 24.5518C62.4939 21.7782 62.9222 19.0242 62.2516 15.6592C61.4571 15.1941 60.5224 14.8722 59.3214 14.6673C57.3737 14.3351 56.3205 13.5388 55.0565 12.3691C53.9305 11.3276 53.0784 10.2842 52.4317 9.01904C51.5372 7.26917 51.2709 5.53334 51.5687 3.67866C51.6806 2.96935 51.7959 2.26098 51.8839 1.55448C51.9339 1.16427 52.0991 0.728199 51.9426 0.351086C51.8382 0.0984306 51.6926 0.000175476 51.5241 0.000175476C51.2361 0.000175476 50.884 0.290264 50.5753 0.582222C48.1863 2.83647 47.5886 6.07047 47.5701 8.8843C47.5516 11.9377 48.5309 14.9817 50.1492 17.7637C51.4567 20.0105 53.7663 22.173 56.3988 23.5935C57.3835 24.126 58.5801 24.4788 59.7909 24.5518Z" fill="#393939"/>
<path d="M90.9682 58.7864C90.7252 59.0539 90.4048 59.2732 90.0867 59.4525C89.9344 59.5368 89.7933 59.6205 89.6544 59.7055C89.6566 59.9422 89.6141 60.1829 89.5648 60.3867C89.4562 60.8832 89.1717 61.2778 88.8021 61.6263C89.081 61.5845 89.3688 61.523 89.6667 61.4727C89.8571 61.4454 90.0531 61.4175 90.2581 61.436C90.3567 61.4454 90.4687 61.4717 90.5415 61.5431C90.6199 61.6106 90.6266 61.7045 90.6311 61.7832C90.5919 61.6128 90.4272 61.5224 90.2536 61.5493C90.08 61.5638 89.9053 61.6184 89.7317 61.6747C89.3822 61.7838 89.0373 61.9228 88.6363 61.992C88.4414 62.0244 88.2096 62.0596 87.9531 61.9602C87.8265 61.9105 87.7156 61.8139 87.6529 61.7128C87.5868 61.6112 87.5644 61.5101 87.5454 61.4041C87.5163 60.9646 87.7895 60.6463 88.0304 60.3782C88.2924 60.1125 88.5881 59.8914 88.8905 59.686C89.2142 59.4999 89.5514 59.3018 89.884 59.1638C90.2133 59.013 90.5202 58.8573 90.7879 58.6423C91.0657 58.4375 91.2874 58.1738 91.5226 57.9159C91.3849 58.2219 91.2034 58.5144 90.9682 58.7864ZM70.4346 61.7128C70.3708 61.8139 70.261 61.9105 70.1345 61.9602C69.8768 62.0596 69.645 62.0244 69.4512 61.992C69.0503 61.9228 68.7042 61.7838 68.3558 61.6747C68.1811 61.6184 68.0075 61.5638 67.8339 61.5493C67.6592 61.5224 67.4945 61.6128 67.4553 61.7832C67.4598 61.7045 67.4665 61.6106 67.5449 61.5431C67.6177 61.4717 67.7297 61.4454 67.8294 61.436C68.0333 61.4175 68.2304 61.4454 68.4197 61.4727C68.7187 61.523 69.0055 61.5845 69.2843 61.6263C68.9159 61.2778 68.6302 60.8832 68.5227 60.3867C68.4723 60.1829 68.4298 59.9422 68.432 59.7055C68.2931 59.6205 68.1531 59.5368 68.0008 59.4525C67.6816 59.2732 67.3624 59.0539 67.1193 58.7864C66.883 58.5144 66.7016 58.2219 66.5638 57.9159C66.8001 58.1738 67.0208 58.4375 67.2985 58.6423C67.5662 58.8573 67.8731 59.013 68.2035 59.1638C68.535 59.3018 68.8722 59.4999 69.1959 59.686C69.4994 59.8914 69.794 60.1125 70.056 60.3782C70.2969 60.6463 70.5713 60.9646 70.541 61.4041C70.522 61.5101 70.5007 61.6112 70.4346 61.7128ZM98.2966 25.2843C98.0457 25.2843 97.806 25.1889 97.6447 25.022C95.0026 22.3133 94.2107 19.4763 94.997 15.5351C95.0362 15.3394 95.165 15.1658 95.3565 15.0539C95.6992 14.8534 96.0677 14.6856 96.453 14.5342C95.2859 13.7463 93.5835 13.2478 91.6817 13.2478H66.4047C64.5029 13.2478 62.8016 13.7463 61.6345 14.5342C62.0198 14.6856 62.3883 14.8534 62.7299 15.0539C62.9226 15.1658 63.0514 15.3394 63.0906 15.5351C63.8757 19.4763 63.0838 22.3133 60.4417 25.022C60.2804 25.1889 60.0407 25.2843 59.7909 25.2843L59.7316 25.2824C59.4224 25.2641 59.1122 25.2255 58.8031 25.1754C58.0773 26.6131 57.6214 28.1638 57.2081 29.6748C56.5417 32.1059 56.2281 34.506 56.9057 36.966C57.4411 38.9168 58.849 40.6555 60.1393 42.2919C61.0857 43.4896 62.218 44.6487 62.9472 45.9389C63.5061 46.9254 63.7951 48.0135 64.1804 49.069C64.9633 51.2108 65.3922 53.3941 65.0965 55.6338C64.9397 56.8259 64.7874 58.051 64.7874 59.2542C64.7874 61.3459 66.2166 62.4365 68.2013 63.5131C70.4268 64.7198 72.9872 64.9072 75.5677 64.9072C76.7314 64.9072 77.9008 64.8693 79.0432 64.8693C80.1868 64.8693 81.355 64.9072 82.5187 64.9072C85.1003 64.9072 87.6596 64.7198 89.8851 63.5131C91.8698 62.4365 93.3001 61.3459 93.3001 59.2542C93.299 58.051 93.1478 56.8259 92.991 55.6338C92.6942 53.3941 93.1243 51.2108 93.9072 49.069C94.2925 48.0135 94.5803 46.9254 95.1392 45.9389C95.8695 44.6487 97.0007 43.4896 97.9471 42.2919C99.2385 40.6555 100.645 38.9168 101.182 36.966C101.859 34.506 101.545 32.1059 100.879 29.6748C100.465 28.1638 100.009 26.6131 99.2833 25.1754C98.9753 25.2255 98.664 25.2641 98.3548 25.2824L98.2966 25.2843Z" fill="#393939"/>
<path d="M28.0974 22.4399C28.8857 22.1122 29.1673 21.3666 28.7267 20.776C28.2852 20.1854 27.2883 19.9718 26.5 20.3002C25.7108 20.6278 25.4292 21.3728 25.8697 21.9641C26.3113 22.5554 27.3082 22.7683 28.0974 22.4399ZM4.14967 26.9378C7.6512 25.5042 11.1537 24.0713 14.6562 22.6376C17.7689 21.3641 20.8455 20.0556 24.0131 18.8712C25.1434 18.4478 26.3726 18.1029 27.6372 18.1465C29.3051 18.2047 30.4379 19.0095 31.1233 20.0889C42.7102 36.5342 52.5479 50.2384 60.3589 60.7969L38.4482 69.9097C33.3543 64.1577 26.6216 56.256 19.5917 47.3743C13.548 39.7721 8.25433 32.6577 4.14967 26.9378Z" fill="#393939"/>
<path d="M0.487839 30.2038C0.321051 29.9673 0.0826477 29.5396 0.234297 29.0827C0.404462 28.5712 1.15595 28.2161 1.59702 27.9924C1.96912 27.8045 2.31707 27.6838 2.31707 27.6838C2.37548 27.6598 2.4329 27.6357 2.49034 27.6124C6.06853 33.5438 10.9286 40.8683 16.9926 48.5022C20.6108 53.0798 24.3165 57.323 27.8176 61.1117C31.1277 64.6796 34.2682 67.8288 37.0186 70.4767C36.5606 70.6888 35.8803 70.9221 35.0719 70.8935C33.787 70.8479 32.7693 70.1841 31.1999 68.7003C30.0469 67.6094 28.9492 66.4879 27.8884 65.347C24.9598 62.1952 22.0584 59.0277 19.29 55.7906C16.5679 52.6068 13.9576 49.3697 11.4582 46.0854C7.27947 40.596 3.64995 35.2749 0.487839 30.2038Z" fill="#393939"/>
<path d="M26.1583 20.8389C26.1583 20.8389 26.205 20.8172 26.2899 20.7782C26.3737 20.7406 26.5017 20.6946 26.6604 20.6571C26.9768 20.5828 27.4391 20.5698 27.843 20.736C28.2508 20.8986 28.496 21.1943 28.5914 21.431C28.6411 21.5505 28.659 21.6548 28.6684 21.7283C28.6728 21.8026 28.6747 21.8445 28.6747 21.8445C28.6747 21.8445 28.6985 21.8075 28.7334 21.7343C28.7634 21.662 28.8005 21.5513 28.7996 21.4085C28.8068 21.1333 28.6067 20.6886 28.0421 20.4598C27.4764 20.2303 26.8658 20.3558 26.568 20.5159C26.4112 20.5968 26.3075 20.6794 26.2468 20.7418C26.1851 20.8027 26.1583 20.8389 26.1583 20.8389Z" fill="#393939"/>
<path d="M69.2507 93.4787C68.947 93.2338 68.7868 93.0868 68.7868 93.0868C68.7868 93.0868 68.9002 93.2534 69.1498 93.5407C69.408 93.8213 69.8385 94.2106 70.4958 94.5926C71.1501 94.9747 72.0321 95.3379 73.076 95.601C74.1208 95.8561 75.323 96.0251 76.5935 96.026C79.1176 96.0155 81.3902 95.531 82.771 94.8216C83.4656 94.4786 83.9206 94.0996 84.1812 93.8201C84.3229 93.6866 84.4 93.5653 84.4624 93.4898C84.5217 93.4128 84.5533 93.3728 84.5533 93.3728C84.5533 93.3728 84.5118 93.4077 84.4336 93.4746C84.3524 93.54 84.2494 93.6453 84.0817 93.7564C83.7681 93.9915 83.2633 94.2945 82.5591 94.5508C81.1669 95.0824 78.9819 95.3868 76.5955 95.3983C75.4065 95.3982 74.2751 95.2777 73.274 95.0935C72.2747 94.9005 71.4074 94.6314 70.7312 94.3332C70.0531 94.0359 69.5651 93.7169 69.2507 93.4787ZM68.8324 80.0286C67.9838 80.3818 67.6799 81.1843 68.1547 81.8209C68.6295 82.4574 69.7032 82.6865 70.5529 82.334C71.4024 81.9801 71.7054 81.1777 71.2306 80.5411C70.7558 79.9052 69.682 79.6754 68.8324 80.0286ZM59.5998 69.1999C58.7502 69.5531 58.4473 70.3555 58.9221 70.9921C59.3969 71.6287 60.4707 71.8585 61.3203 71.5053C62.1689 71.1513 62.4728 70.3496 61.998 69.7131C61.5232 69.0765 60.4495 68.8474 59.5998 69.1999ZM66.8567 86.2955C65.236 84.2031 63.656 82.0898 61.9719 80.0244C58.642 75.9389 54.903 71.9387 50.2748 68.6089C49.7113 68.2024 49.3475 68.0462 48.481 67.4257L61.3613 62.0684C71.3774 75.5617 78.076 83.8955 81.4504 86.9825C82.3656 87.8201 86.041 91.1646 84.8758 93.7212C84.0276 95.584 79.9215 96.3602 77.6145 96.5555C75.022 96.7754 72.3205 96.3738 70.0934 95.3364C69.647 95.1288 69.2148 94.8954 68.864 94.6053C68.7371 94.5014 68.6228 94.3914 68.5211 94.2726C67.2839 92.8205 68.6851 91.5274 68.7684 90.0728C68.8456 88.7058 67.7338 87.4282 66.8567 86.2955Z" fill="#393939"/>
<path d="M59.0554 70.0833C59.0554 70.0833 59.6201 70.0436 60.3103 70.1336C60.4878 69.6283 60.7715 69.2618 60.7715 69.2618C60.7715 69.2618 60.8263 69.6833 60.708 70.1991C61.3844 70.3341 61.8756 70.5473 61.8756 70.5473C61.8756 70.5473 61.3119 70.587 60.6217 70.497C60.4432 71.003 60.1596 71.3688 60.1596 71.3688C60.1596 71.3688 60.1047 70.9465 60.223 70.4315C59.5466 70.2965 59.0554 70.0833 59.0554 70.0833Z" fill="#393939"/>
<path d="M131.945 23.24C131.202 22.876 130.997 22.1141 131.486 21.5396C131.975 20.9651 132.974 20.794 133.717 21.1586C134.46 21.5226 134.666 22.2838 134.177 22.8591C133.687 23.4343 132.688 23.6047 131.945 23.24ZM155.024 28.8097C151.723 27.2152 148.422 25.6214 145.12 24.0268C142.186 22.6102 139.291 21.1601 136.294 19.8308C135.225 19.3557 134.052 18.9551 132.806 18.9436C131.163 18.9292 129.974 19.6888 129.199 20.744C116.256 36.7706 105.291 50.1179 96.6162 60.3913L117.255 70.5116C122.805 64.9516 130.168 57.3021 137.916 48.6803C144.574 41.3017 150.449 34.3807 155.024 28.8097Z" fill="#393939"/>
<path d="M158.541 32.3343C158.726 32.1042 159 31.6853 158.895 31.22C158.777 30.6991 158.076 30.3098 157.666 30.0659C157.32 29.8611 156.992 29.7247 156.992 29.7247C156.937 29.6981 156.883 29.6714 156.829 29.6455C152.769 35.4433 147.323 42.5835 140.671 49.9817C136.699 54.4187 132.674 58.5163 128.892 62.1666C125.318 65.6035 121.95 68.6276 119.01 71.1655C119.437 71.3984 120.08 71.6623 120.873 71.6689C122.133 71.6792 123.191 71.0574 124.866 69.6364C126.097 68.5918 127.276 67.5139 128.422 66.4149C131.583 63.379 134.72 60.3261 137.733 57.1976C140.696 54.1205 143.555 50.9851 146.31 47.7974C150.916 42.4695 154.969 37.2867 158.541 32.3343Z" fill="#393939"/>
<path d="M133.678 21.9142C133.678 21.9142 133.634 21.8902 133.554 21.8471C133.475 21.8055 133.353 21.7534 133.2 21.7086C132.895 21.6197 132.439 21.5863 132.025 21.7363C131.606 21.8825 131.336 22.1702 131.219 22.405C131.158 22.5234 131.131 22.6279 131.114 22.7017C131.103 22.7764 131.097 22.8187 131.097 22.8187C131.097 22.8187 131.077 22.7803 131.05 22.7049C131.027 22.6305 131.001 22.5172 131.015 22.3732C131.035 22.095 131.275 21.6549 131.855 21.4488C132.435 21.242 133.026 21.3954 133.305 21.5702C133.452 21.6587 133.546 21.7466 133.6 21.8122C133.655 21.8764 133.678 21.9142 133.678 21.9142Z" fill="#393939"/>
<path d="M84.8354 92.3692C85.1568 92.1363 85.328 91.9956 85.328 91.9956C85.328 91.9956 85.2008 92.158 84.9286 92.4359C84.6484 92.7067 84.1889 93.0791 83.5075 93.4344C82.829 93.7899 81.929 94.1163 80.8795 94.3352C79.83 94.5458 78.6342 94.6632 77.3874 94.6085C74.9117 94.4875 72.7279 93.9011 71.4407 93.1276C70.7918 92.7525 70.3814 92.3516 70.1524 92.0593C70.0261 91.9188 69.962 91.7936 69.908 91.7149C69.8571 91.635 69.8299 91.5934 69.8299 91.5934C69.8299 91.5934 69.8674 91.6303 69.9377 91.701C70.0112 91.7703 70.1022 91.8806 70.2562 91.9996C70.5414 92.2496 71.0078 92.5763 71.6744 92.8647C72.9898 93.46 75.1048 93.8616 77.4454 93.9775C78.6121 94.0294 79.7338 93.9577 80.7336 93.8164C81.7326 93.6661 82.6092 93.4335 83.3012 93.1634C83.995 92.8942 84.5042 92.5949 84.8354 92.3692ZM86.5283 78.8677C87.3273 79.2599 87.549 80.0798 87.0224 80.6989C86.4958 81.318 85.4203 81.5013 84.6203 81.1098C83.8204 80.7169 83.5996 79.897 84.1262 79.2779C84.6527 78.6596 85.7283 78.4755 86.5283 78.8677ZM96.6201 68.3867C97.4201 68.7789 97.6409 69.5987 97.1143 70.2179C96.5876 70.837 95.5121 71.021 94.7121 70.6288C93.9132 70.2359 93.6914 69.4167 94.218 68.7976C94.7446 68.1785 95.82 67.9953 96.6201 68.3867ZM87.8693 85.2535C89.6592 83.2212 91.411 81.166 93.2605 79.1636C96.9175 75.2025 100.968 71.3452 105.827 68.2005C106.418 67.8166 106.79 67.6755 107.7 67.0897L95.5716 61.1412C84.4569 74.2663 77.0893 82.3503 73.4839 85.3057C72.506 86.1076 68.5807 89.3086 69.4802 91.9295C70.1349 93.8391 74.09 94.7989 76.3352 95.096C78.8581 95.4305 81.5472 95.145 83.8314 94.1997C84.2892 94.0106 84.7356 93.7948 85.1075 93.5186C85.2419 93.4197 85.3645 93.3141 85.4756 93.1991C86.8281 91.7936 85.5764 90.4325 85.6334 88.9668C85.688 87.5893 86.9008 86.3537 87.8693 85.2535Z" fill="#393939"/>
<path d="M97.0206 69.4053C97.0206 69.4053 96.4684 69.3405 95.7801 69.4009C95.6537 68.8843 95.4096 68.5028 95.4096 68.5028C95.4096 68.5028 95.3152 68.9249 95.3823 69.4495C94.7033 69.5558 94.1993 69.7489 94.1993 69.7489C94.1993 69.7489 94.7505 69.8136 95.4388 69.7532C95.5661 70.2706 95.8103 70.6514 95.8103 70.6514C95.8103 70.6514 95.9048 70.2286 95.8376 69.7047C96.5165 69.5984 97.0206 69.4053 97.0206 69.4053Z" fill="#393939"/>
</svg>
