<svg width="213" height="94" viewBox="0 0 213 94" fill="none" xmlns="http://www.w3.org/2000/svg">
<path d="M109.474 17.7044C109.949 19.3182 110.047 20.6122 109.783 21.8281C109.98 21.9337 110.18 22.0341 110.39 22.1243C112.011 22.8209 113.969 22.9285 115.771 23.0289C116.211 23.0534 116.652 23.0678 117.093 23.0678C118.617 23.0678 120.128 22.8936 121.507 22.352C121.794 22.2394 121.975 22.2542 121.856 21.9606C121.783 21.7827 121.24 21.5921 121.055 21.4923C120.674 21.2851 120.286 21.0663 119.934 20.8265C118.062 19.5484 117.113 17.6346 115.26 16.3573C114.015 15.4989 112.345 14.9181 110.695 14.8048C110.276 14.7761 109.786 14.7428 109.281 14.7345C109.013 14.84 108.737 14.927 108.452 14.9955C108.903 15.8481 109.198 16.7647 109.474 17.7044Z" fill="#393939"/>
<path d="M79.0732 14.8049C77.4226 14.9183 75.7539 15.4989 74.5085 16.3573C72.6557 17.6347 71.7063 19.5487 69.8347 20.8265C69.4827 21.0663 69.0944 21.2852 68.7124 21.4924C68.5284 21.5924 67.9847 21.7827 67.9126 21.9607C67.7937 22.2543 67.9749 22.2397 68.2611 22.3526C69.6408 22.8938 71.1521 23.0679 72.6753 23.0679C73.1161 23.0679 73.5576 23.0538 73.997 23.0291C75.7994 22.9286 77.7585 22.8208 79.3782 22.1241C79.5881 22.0342 79.7896 21.9337 79.9862 21.8282C79.7218 20.6126 79.8204 19.3185 80.2941 17.7043C80.5698 16.765 80.8664 15.8487 81.3177 14.9958C81.0322 14.9267 80.7545 14.8403 80.4872 14.7347C79.982 14.7431 79.4923 14.7763 79.0732 14.8049Z" fill="#393939"/>
<path d="M107.58 8.80091C106.808 8.92394 106.205 9.11667 105.694 9.39547C105.262 11.4143 105.538 13.0671 107.279 14.7308C108.057 14.6878 108.828 14.4756 109.462 14.1562C111.157 13.3041 112.643 12.0065 113.485 10.6585C114.526 8.9894 115.157 7.16267 115.145 5.33109C115.134 3.64254 114.748 1.70248 113.211 0.349097C113.012 0.174545 112.786 -9.68948e-06 112.6 -9.68948e-06C112.492 -9.68948e-06 112.397 0.059391 112.33 0.210911C112.229 0.43698 112.337 0.698199 112.368 0.932752C112.425 1.3564 112.499 1.78187 112.572 2.20734C112.763 3.32011 112.592 4.36196 112.016 5.4117C111.6 6.17051 111.05 6.7972 110.326 7.42146C109.512 8.1233 108.834 8.6015 107.58 8.80091Z" fill="#393939"/>
<path d="M94.1174 40.5734H95.6511C97.3702 40.5734 98.8206 40.0266 99.2838 39.2782C98.5611 39.3606 97.8334 39.384 97.1211 39.384C96.7412 39.384 96.3606 39.3784 95.9821 39.3726C95.614 39.367 95.2467 39.3612 94.8836 39.3612C94.5211 39.3612 94.1545 39.367 93.7865 39.3726C93.4073 39.3784 93.0266 39.384 92.6467 39.384C91.9351 39.384 91.2068 39.3606 90.484 39.2782C90.9479 40.0266 92.3976 40.5734 94.1174 40.5734Z" fill="#393939"/>
<path d="M82.4904 14.7313C84.2305 13.0672 84.5061 11.4148 84.0744 9.3958C83.563 9.11675 82.9612 8.92361 82.1881 8.80065C80.9343 8.60134 80.2563 8.12353 79.4426 7.42171C78.7177 6.79681 78.1692 6.17079 77.7529 5.4117C77.177 4.36177 77.0056 3.32027 77.1973 2.20747C77.2694 1.78188 77.3436 1.35686 77.4002 0.932959C77.4324 0.698831 77.5388 0.437189 77.438 0.210922C77.3708 0.0593281 77.2771 0.000375161 77.1686 0.000375161C76.9832 0.000375161 76.7565 0.174428 76.5578 0.349603C75.0199 1.70215 74.6351 3.64255 74.6232 5.33085C74.6113 7.16288 75.2417 8.9893 76.2835 10.6585C77.1252 12.0066 78.6121 13.3041 80.3067 14.1564C80.9406 14.4759 81.7109 14.6875 82.4904 14.7313Z" fill="#393939"/>
<path d="M102.561 35.272C102.404 35.4325 102.198 35.5641 101.993 35.6717C101.895 35.7222 101.804 35.7724 101.715 35.8235C101.717 35.9655 101.689 36.1099 101.657 36.2322C101.587 36.53 101.404 36.7669 101.166 36.976C101.346 36.9508 101.531 36.9139 101.723 36.8838C101.846 36.8674 101.972 36.8506 102.104 36.8617C102.167 36.8674 102.239 36.8832 102.286 36.926C102.337 36.9665 102.341 37.0229 102.344 37.0701C102.319 36.9679 102.213 36.9136 102.101 36.9297C101.989 36.9384 101.877 36.9712 101.765 37.005C101.54 37.0704 101.318 37.1538 101.06 37.1954C100.934 37.2148 100.785 37.2359 100.62 37.1763C100.538 37.1465 100.467 37.0885 100.427 37.0279C100.384 36.9669 100.37 36.9062 100.357 36.8426C100.339 36.5789 100.515 36.3879 100.67 36.2271C100.838 36.0676 101.029 35.935 101.223 35.8117C101.432 35.7001 101.649 35.5812 101.863 35.4984C102.075 35.4079 102.272 35.3145 102.445 35.1855C102.624 35.0626 102.766 34.9044 102.918 34.7497C102.829 34.9333 102.712 35.1088 102.561 35.272ZM89.3423 37.0279C89.3012 37.0885 89.2306 37.1465 89.1491 37.1763C88.9833 37.2359 88.834 37.2148 88.7093 37.1954C88.4512 37.1538 88.2284 37.0704 88.0041 37.005C87.8916 36.9712 87.7799 36.9384 87.6681 36.9297C87.5556 36.9136 87.4497 36.9679 87.4244 37.0701C87.4273 37.0229 87.4316 36.9665 87.4821 36.926C87.529 36.8832 87.6011 36.8674 87.6652 36.8617C87.7965 36.8506 87.9234 36.8674 88.0452 36.8838C88.2377 36.9139 88.4223 36.9508 88.6018 36.976C88.3646 36.7669 88.1808 36.53 88.1115 36.2322C88.0791 36.1099 88.0517 35.9655 88.0531 35.8235C87.9637 35.7724 87.8736 35.7222 87.7756 35.6717C87.5701 35.5641 87.3646 35.4325 87.2081 35.272C87.056 35.1088 86.9392 34.9333 86.8505 34.7497C87.0026 34.9044 87.1447 35.0626 87.3235 35.1855C87.4958 35.3145 87.6934 35.4079 87.9061 35.4984C88.1195 35.5812 88.3365 35.7001 88.5449 35.8117C88.7403 35.935 88.9299 36.0676 89.0986 36.2271C89.2537 36.3879 89.4303 36.5789 89.4108 36.8426C89.3986 36.9062 89.3849 36.9669 89.3423 37.0279ZM107.278 15.1707C107.117 15.1707 106.963 15.1135 106.859 15.0134C105.158 13.3881 104.648 11.6859 105.154 9.32123C105.18 9.20378 105.263 9.09964 105.386 9.03252C105.606 8.91217 105.844 8.8115 106.092 8.72066C105.34 8.24795 104.244 7.94882 103.02 7.94882H86.7481C85.5238 7.94882 84.4286 8.24795 83.6773 8.72066C83.9253 8.8115 84.1625 8.91217 84.3824 9.03252C84.5064 9.09964 84.5894 9.20378 84.6146 9.32123C85.12 11.6859 84.6103 13.3881 82.9094 15.0134C82.8055 15.1135 82.6513 15.1707 82.4905 15.1707L82.4523 15.1696C82.2533 15.1586 82.0535 15.1355 81.8545 15.1054C81.3873 15.968 81.0938 16.8984 80.8278 17.8051C80.3988 19.2637 80.1969 20.7038 80.6331 22.1798C80.9778 23.3502 81.8841 24.3934 82.7147 25.3753C83.324 26.0939 84.0529 26.7894 84.5223 27.5635C84.8821 28.1554 85.0681 28.8083 85.3162 29.4415C85.8201 30.7266 86.0963 32.0366 85.9059 33.3804C85.805 34.0957 85.7069 34.8307 85.7069 35.5527C85.7069 36.8077 86.627 37.462 87.9046 38.108C89.3373 38.832 90.9855 38.9445 92.6468 38.9445C93.3959 38.9445 94.1487 38.9217 94.8841 38.9217C95.6203 38.9217 96.3723 38.9445 97.1214 38.9445C98.7834 38.9445 100.431 38.832 101.864 38.108C103.141 37.462 104.062 36.8077 104.062 35.5527C104.061 34.8307 103.964 34.0957 103.863 33.3804C103.672 32.0366 103.949 30.7266 104.453 29.4415C104.701 28.8083 104.886 28.1554 105.246 27.5635C105.716 26.7894 106.444 26.0939 107.054 25.3753C107.885 24.3934 108.79 23.3502 109.136 22.1798C109.572 20.7038 109.369 19.2637 108.941 17.8051C108.674 16.8984 108.381 15.968 107.914 15.1054C107.715 15.1355 107.515 15.1586 107.316 15.1696L107.278 15.1707Z" fill="#393939"/>
<path d="M62.075 13.4517C62.5817 13.2553 62.7622 12.8077 62.4785 12.4528C62.1941 12.098 61.5529 11.9692 61.0462 12.1661C60.5388 12.3625 60.3583 12.8097 60.642 13.165C60.9263 13.5202 61.5676 13.6485 62.075 13.4517ZM46.6772 16.1416C48.928 15.2823 51.1795 14.4235 53.431 13.5642C55.4319 12.8009 57.4095 12.0166 59.4458 11.3069C60.1724 11.0532 60.9626 10.8466 61.776 10.8734C62.8486 10.9091 63.5777 11.3929 64.0192 12.0413C71.4825 21.9217 77.8189 30.1553 82.8497 36.499L68.7653 41.961C65.4853 38.5047 61.1498 33.7568 56.6225 28.4203C52.7304 23.8526 49.321 19.5781 46.6772 16.1416Z" fill="#393939"/>
<path d="M44.3155 18.1071C44.2081 17.965 44.0545 17.7082 44.1517 17.4339C44.2607 17.1269 44.7436 16.9141 45.027 16.7799C45.2661 16.6674 45.4898 16.595 45.4898 16.595C45.5273 16.5806 45.5642 16.5662 45.6011 16.5522C47.9058 20.1149 51.0356 24.5145 54.9397 29.1004C57.2692 31.8503 59.6546 34.3995 61.9082 36.6758C64.0388 38.8193 66.0602 40.7114 67.8304 42.3024C67.5361 42.4296 67.0988 42.5693 66.579 42.5517C65.753 42.5238 65.0982 42.1248 64.0882 41.2333C63.3461 40.5778 62.6395 39.904 61.9567 39.2185C60.0716 37.3249 58.204 35.4219 56.4219 33.4772C54.6695 31.5645 52.989 29.6199 51.3798 27.647C48.6893 24.3494 46.3521 21.1531 44.3155 18.1071Z" fill="#393939"/>
<path d="M60.8398 12.5027C60.8398 12.5027 60.8699 12.4897 60.9244 12.4663C60.9783 12.4437 61.0606 12.4161 61.1627 12.3937C61.3662 12.3492 61.6636 12.3416 61.9236 12.4417C62.1861 12.5395 62.344 12.7173 62.4056 12.8595C62.4376 12.9313 62.4492 12.994 62.4553 13.0382C62.4582 13.0828 62.4594 13.108 62.4594 13.108C62.4594 13.108 62.4747 13.0858 62.4972 13.0418C62.5164 12.9984 62.5402 12.9319 62.5395 12.8461C62.5439 12.6808 62.4149 12.4135 62.0515 12.2758C61.6874 12.1376 61.2947 12.2128 61.1031 12.3088C61.0023 12.3574 60.9357 12.4069 60.8967 12.4444C60.857 12.4809 60.8398 12.5027 60.8398 12.5027Z" fill="#393939"/>
<path d="M88.5885 56.0949C88.393 55.9477 88.2899 55.8594 88.2899 55.8594C88.2899 55.8594 88.363 55.9594 88.5237 56.1321C88.6899 56.3007 88.967 56.5346 89.39 56.7643C89.8111 56.9941 90.3785 57.2125 91.0501 57.371C91.7221 57.5246 92.4954 57.6267 93.3124 57.6278C94.9356 57.6227 96.3968 57.3328 97.2842 56.9074C97.7307 56.7018 98.023 56.4745 98.1904 56.3068C98.2814 56.2266 98.3309 56.1539 98.371 56.1085C98.4091 56.0623 98.4294 56.0383 98.4294 56.0383C98.4294 56.0383 98.4027 56.0593 98.3524 56.0994C98.3003 56.1387 98.2341 56.2018 98.1263 56.2684C97.9249 56.4095 97.6005 56.5912 97.1478 56.7448C96.2528 57.0634 94.8479 57.2451 93.3132 57.2509C92.5486 57.2503 91.8209 57.1774 91.177 57.0664C90.5342 56.95 89.9763 56.788 89.5412 56.6087C89.1049 56.4298 88.7909 56.2381 88.5885 56.0949ZM88.31 48.0184C87.7645 48.2301 87.5696 48.7118 87.8754 49.0943C88.1812 49.4767 88.8719 49.6148 89.418 49.4035C89.9641 49.1914 90.1584 48.7097 89.8526 48.3272C89.5468 47.9452 88.8561 47.8067 88.31 48.0184ZM82.365 41.5119C81.8188 41.7236 81.6246 42.2053 81.9304 42.5877C82.2362 42.9702 82.9269 43.1087 83.473 42.897C84.0185 42.6848 84.2134 42.2036 83.9076 41.8211C83.6018 41.4387 82.9111 41.3006 82.365 41.5119ZM87.0439 51.7806C86.0001 50.5234 84.9826 49.2537 83.8981 48.0127C81.7537 45.558 79.3464 43.1543 76.3677 41.1527C76.0051 40.9084 75.771 40.8144 75.2133 40.4415L83.4927 37.2305C89.9435 45.3373 94.2572 50.3446 96.4294 52.1998C97.0186 52.7032 99.3846 54.713 98.637 56.2477C98.0929 57.3659 95.4528 57.83 93.9693 57.9462C92.3023 58.0771 90.5647 57.8347 89.1318 57.2108C88.8445 57.0859 88.5664 56.9455 88.3406 56.7712C88.2589 56.7087 88.1854 56.6427 88.1199 56.5712C87.3232 55.6988 88.2234 54.9229 88.276 54.0496C88.3246 53.2287 87.6087 52.4611 87.0439 51.7806Z" fill="#393939"/>
<path d="M82.0173 42.0493C82.0173 42.0493 82.3805 42.0257 82.8246 42.0801C82.9384 41.7767 83.1206 41.5567 83.1206 41.5567C83.1206 41.5567 83.1562 41.8099 83.0804 42.1196C83.5156 42.201 83.8317 42.3293 83.8317 42.3293C83.8317 42.3293 83.4692 42.3529 83.0251 42.2985C82.9107 42.6023 82.7285 42.8219 82.7285 42.8219C82.7285 42.8219 82.6929 42.5683 82.7686 42.259C82.3334 42.1776 82.0173 42.0493 82.0173 42.0493Z" fill="#393939"/>
<path d="M128.644 14.3156C128.17 14.0984 128.042 13.6399 128.357 13.2926C128.673 12.9454 129.314 12.8397 129.788 13.0574C130.263 13.2747 130.391 13.7326 130.076 14.0804C129.759 14.4281 129.119 14.5333 128.644 14.3156ZM143.403 17.6101C141.296 16.6583 139.188 15.707 137.08 14.7552C135.206 13.9096 133.358 13.0438 131.444 12.2509C130.761 11.9676 130.011 11.7294 129.213 11.7257C128.161 11.7213 127.397 12.1819 126.896 12.8194C118.541 22.5059 111.465 30.5735 105.868 36.7837L119.045 42.8254C122.621 39.4621 127.368 34.8357 132.365 29.6226C136.659 25.1612 140.45 20.9774 143.403 17.6101Z" fill="#393939"/>
<path d="M145.69 19.7553C145.81 19.6163 145.987 19.3636 145.921 19.0839C145.848 18.7708 145.402 18.5383 145.14 18.3927C144.92 18.2703 144.71 18.1891 144.71 18.1891C144.675 18.1732 144.641 18.1573 144.607 18.1419C141.986 21.641 138.475 25.9516 134.19 30.4206C131.633 33.1008 129.042 35.5768 126.609 37.7831C124.309 39.8605 122.142 41.6889 120.252 43.2237C120.524 43.3627 120.934 43.5198 121.441 43.5217C122.247 43.5247 122.926 43.1478 124.003 42.2884C124.795 41.6566 125.553 41.0049 126.29 40.3407C128.325 38.5057 130.343 36.6605 132.283 34.7702C134.19 32.9109 136.031 31.0169 137.806 29.0916C140.773 25.8737 143.386 22.7445 145.69 19.7553Z" fill="#393939"/>
<path d="M129.691 13.5814C129.691 13.5814 129.663 13.567 129.612 13.5412C129.561 13.5163 129.483 13.4851 129.385 13.4585C129.19 13.4056 128.898 13.3866 128.631 13.4783C128.362 13.5677 128.187 13.7421 128.111 13.8841C128.072 13.9558 128.054 14.019 128.043 14.0635C128.035 14.1087 128.031 14.1342 128.031 14.1342C128.031 14.1342 128.019 14.1111 128.001 14.0657C127.987 14.0208 127.971 13.9524 127.981 13.8654C127.994 13.6975 128.15 13.4311 128.523 13.3051C128.897 13.1788 129.275 13.2699 129.453 13.3746C129.547 13.4277 129.607 13.4806 129.642 13.52C129.677 13.5586 129.691 13.5814 129.691 13.5814Z" fill="#393939"/>
<path d="M98.2063 55.8997C98.413 55.7586 98.5233 55.6734 98.5233 55.6734C98.5233 55.6734 98.4411 55.7716 98.2657 55.9396C98.0852 56.1034 97.7894 56.3289 97.3516 56.5447C96.9157 56.7605 96.338 56.9594 95.6651 57.094C94.9922 57.2236 94.226 57.2974 93.4278 57.2677C91.843 57.2013 90.4469 56.8538 89.6257 56.3913C89.2118 56.1671 88.9506 55.9268 88.8051 55.7513C88.7248 55.6671 88.6843 55.5918 88.65 55.5446C88.6178 55.4966 88.6005 55.4716 88.6005 55.4716C88.6005 55.4716 88.6243 55.4937 88.6691 55.5361C88.7159 55.5776 88.7737 55.6439 88.8718 55.7151C89.0535 55.8649 89.3508 56.0604 89.7765 56.2324C90.6164 56.5875 91.9691 56.8238 93.4675 56.8875C94.2144 56.9157 94.933 56.8696 95.5738 56.7819C96.2141 56.6888 96.7764 56.5464 97.2206 56.382C97.666 56.218 97.9933 56.0365 98.2063 55.8997ZM99.3451 47.7644C99.8552 47.9984 99.9938 48.4916 99.6541 48.8658C99.3143 49.24 98.6249 49.3532 98.1142 49.1196C97.6035 48.885 97.4655 48.3919 97.8052 48.0176C98.1449 47.6439 98.8344 47.5302 99.3451 47.7644ZM105.85 41.4261C106.361 41.6602 106.499 42.1534 106.159 42.5276C105.819 42.9018 105.13 43.0154 104.619 42.7813C104.109 42.5468 103.97 42.0541 104.31 41.6798C104.65 41.3056 105.339 41.1924 105.85 41.4261ZM100.178 51.6066C101.332 50.378 102.463 49.1357 103.655 47.925C106.013 45.53 108.622 43.1964 111.746 41.29C112.127 41.0572 112.365 40.9713 112.95 40.6162L105.208 37.0654C98.0373 44.9986 93.2866 49.8863 90.9659 51.6755C90.3364 52.161 87.8098 54.0989 88.3752 55.6749C88.7867 56.8232 91.3155 57.3909 92.752 57.564C94.3662 57.7589 96.0894 57.5799 97.556 57.0047C97.8499 56.8896 98.1366 56.7585 98.3759 56.5912C98.4623 56.5313 98.5413 56.4674 98.6129 56.3978C99.4847 55.5479 98.6887 54.7314 98.7311 53.8486C98.7716 53.0189 99.5533 52.2716 100.178 51.6066Z" fill="#393939"/>
<path d="M106.092 42.0759C106.092 42.0759 105.738 42.0383 105.297 42.0765C105.218 41.7653 105.063 41.5359 105.063 41.5359C105.063 41.5359 105.001 41.7907 105.041 42.1068C104.606 42.1726 104.282 42.2904 104.282 42.2904C104.282 42.2904 104.635 42.328 105.076 42.2897C105.156 42.6014 105.311 42.8303 105.311 42.8303C105.311 42.8303 105.373 42.5751 105.332 42.2595C105.768 42.1936 106.092 42.0759 106.092 42.0759Z" fill="#393939"/>
<path d="M114.584 67L107.648 58.984V67H102.776V50.488H107.408L114.344 58.624V50.488H119.216V67H114.584ZM128.984 54.04C131.208 54.04 132.952 54.608 134.216 55.744C135.496 56.864 136.136 58.504 136.136 60.664C136.136 62.824 135.496 64.472 134.216 65.608C132.952 66.728 131.208 67.288 128.984 67.288C126.76 67.288 125.016 66.728 123.752 65.608C122.488 64.488 121.856 62.84 121.856 60.664C121.856 58.488 122.488 56.84 123.752 55.72C125.016 54.6 126.76 54.04 128.984 54.04ZM128.984 57.28C127.416 57.28 126.632 58.184 126.632 59.992V61.36C126.632 63.152 127.416 64.048 128.984 64.048C130.568 64.048 131.36 63.152 131.36 61.36V59.992C131.36 58.184 130.568 57.28 128.984 57.28ZM143.24 55.504C144.152 54.528 145.336 54.04 146.792 54.04C148.504 54.04 149.824 54.6 150.752 55.72C151.68 56.824 152.144 58.464 152.144 60.64C152.144 62.832 151.68 64.488 150.752 65.608C149.824 66.728 148.504 67.288 146.792 67.288C145.032 67.288 143.688 66.592 142.76 65.2L142.352 67H138.464V49.6H143.24V55.504ZM145.304 57.568C144.6 57.568 144.072 57.824 143.72 58.336C143.368 58.832 143.192 59.48 143.192 60.28V61.072C143.192 61.872 143.368 62.52 143.72 63.016C144.072 63.512 144.6 63.76 145.304 63.76C146.68 63.76 147.368 62.944 147.368 61.312V60.04C147.368 58.392 146.68 57.568 145.304 57.568ZM162.152 54.016C162.52 54.016 162.848 54.064 163.136 54.16C163.424 54.24 163.568 54.288 163.568 54.304V58.312H162.032C161.04 58.312 160.32 58.568 159.872 59.08C159.44 59.592 159.224 60.352 159.224 61.36V67H154.448V54.328H158.36L158.672 56.248C158.96 55.512 159.416 54.96 160.04 54.592C160.664 54.208 161.368 54.016 162.152 54.016ZM172.039 54.04C174.359 54.04 176.127 54.584 177.343 55.672C178.575 56.76 179.191 58.424 179.191 60.664V61.48H169.687C169.687 62.392 169.887 63.08 170.287 63.544C170.703 64.008 171.351 64.24 172.231 64.24C173.031 64.24 173.615 64.072 173.983 63.736C174.367 63.4 174.559 62.952 174.559 62.392H179.191C179.191 63.928 178.607 65.128 177.439 65.992C176.271 66.856 174.567 67.288 172.327 67.288C169.975 67.288 168.151 66.744 166.855 65.656C165.559 64.552 164.911 62.888 164.911 60.664C164.911 58.488 165.543 56.84 166.807 55.72C168.071 54.6 169.815 54.04 172.039 54.04ZM172.231 57.088C170.727 57.088 169.887 57.8 169.711 59.224H174.367C174.367 58.568 174.175 58.048 173.791 57.664C173.423 57.28 172.903 57.088 172.231 57.088ZM187.519 54.04C189.215 54.04 190.647 54.376 191.815 55.048C192.999 55.704 193.591 56.728 193.591 58.12H189.151C189.151 57.656 188.943 57.328 188.527 57.136C188.239 56.976 187.879 56.896 187.447 56.896C186.295 56.896 185.719 57.168 185.719 57.712C185.719 58.016 185.919 58.232 186.319 58.36C186.719 58.488 187.375 58.624 188.287 58.768C189.407 58.928 190.343 59.12 191.095 59.344C191.847 59.552 192.503 59.936 193.063 60.496C193.623 61.04 193.903 61.808 193.903 62.8C193.903 64.416 193.295 65.568 192.079 66.256C190.879 66.944 189.303 67.288 187.351 67.288C186.231 67.288 185.175 67.136 184.183 66.832C183.191 66.512 182.383 66.024 181.759 65.368C181.135 64.712 180.823 63.88 180.823 62.872H185.263V62.968C185.279 63.512 185.503 63.896 185.935 64.12C186.383 64.328 186.855 64.432 187.351 64.432C188.679 64.432 189.343 64.12 189.343 63.496C189.343 63.176 189.135 62.944 188.719 62.8C188.303 62.656 187.623 62.504 186.679 62.344C185.543 62.152 184.607 61.944 183.871 61.72C183.151 61.496 182.519 61.12 181.975 60.592C181.431 60.048 181.159 59.296 181.159 58.336C181.159 56.784 181.743 55.68 182.911 55.024C184.095 54.368 185.631 54.04 187.519 54.04Z" fill="#393939"/>
<path d="M9.648 48.2C12.096 48.2 14.032 48.816 15.456 50.048C16.88 51.264 17.592 53.008 17.592 55.28H12.528C12.528 54.32 12.272 53.56 11.76 53C11.264 52.44 10.552 52.16 9.624 52.16C8.552 52.16 7.76 52.496 7.248 53.168C6.752 53.84 6.504 54.776 6.504 55.976V57.512C6.504 58.696 6.752 59.632 7.248 60.32C7.76 60.992 8.536 61.328 9.576 61.328C10.6 61.328 11.376 61.064 11.904 60.536C12.432 60.008 12.696 59.264 12.696 58.304H17.592C17.592 60.56 16.896 62.288 15.504 63.488C14.128 64.688 12.176 65.288 9.648 65.288C6.832 65.288 4.696 64.568 3.24 63.128C1.8 61.688 1.08 59.56 1.08 56.744C1.08 53.928 1.8 51.8 3.24 50.36C4.696 48.92 6.832 48.2 9.648 48.2ZM26.6717 52.04C28.8957 52.04 30.6397 52.608 31.9037 53.744C33.1837 54.864 33.8237 56.504 33.8237 58.664C33.8237 60.824 33.1837 62.472 31.9037 63.608C30.6397 64.728 28.8957 65.288 26.6717 65.288C24.4477 65.288 22.7037 64.728 21.4397 63.608C20.1757 62.488 19.5437 60.84 19.5437 58.664C19.5437 56.488 20.1757 54.84 21.4397 53.72C22.7037 52.6 24.4477 52.04 26.6717 52.04ZM26.6717 55.28C25.1037 55.28 24.3197 56.184 24.3197 57.992V59.36C24.3197 61.152 25.1037 62.048 26.6717 62.048C28.2557 62.048 29.0477 61.152 29.0477 59.36V57.992C29.0477 56.184 28.2557 55.28 26.6717 55.28ZM43.8315 52.016C44.1995 52.016 44.5275 52.064 44.8155 52.16C45.1035 52.24 45.2475 52.288 45.2475 52.304V56.312H43.7115C42.7195 56.312 41.9995 56.568 41.5515 57.08C41.1195 57.592 40.9035 58.352 40.9035 59.36V65H36.1275V52.328H40.0395L40.3515 54.248C40.6395 53.512 41.0955 52.96 41.7195 52.592C42.3435 52.208 43.0475 52.016 43.8315 52.016ZM56.4349 52.328V55.568H53.7469V60.392C53.7469 60.968 53.8429 61.392 54.0349 61.664C54.2269 61.92 54.5789 62.048 55.0909 62.048H56.4349V64.856C56.0509 64.984 55.5549 65.088 54.9469 65.168C54.3389 65.248 53.8109 65.288 53.3629 65.288C51.9549 65.288 50.8669 65.032 50.0989 64.52C49.3469 64.008 48.9709 63.136 48.9709 61.904V55.568H47.1949V52.328H49.1629L50.1949 48.488H53.7469V52.328H56.4349ZM65.2029 52.04C67.5229 52.04 69.2909 52.584 70.5069 53.672C71.7389 54.76 72.3549 56.424 72.3549 58.664V59.48H62.8509C62.8509 60.392 63.0509 61.08 63.4509 61.544C63.8669 62.008 64.5149 62.24 65.3949 62.24C66.1949 62.24 66.7789 62.072 67.1469 61.736C67.5309 61.4 67.7229 60.952 67.7229 60.392H72.3549C72.3549 61.928 71.7709 63.128 70.6029 63.992C69.4349 64.856 67.7309 65.288 65.4909 65.288C63.1389 65.288 61.3149 64.744 60.0189 63.656C58.7229 62.552 58.0749 60.888 58.0749 58.664C58.0749 56.488 58.7069 54.84 59.9709 53.72C61.2349 52.6 62.9789 52.04 65.2029 52.04ZM65.3949 55.088C63.8909 55.088 63.0509 55.8 62.8749 57.224H67.5309C67.5309 56.568 67.3389 56.048 66.9549 55.664C66.5869 55.28 66.0669 55.088 65.3949 55.088ZM80.6828 52.04C82.3788 52.04 83.8108 52.376 84.9788 53.048C86.1628 53.704 86.7548 54.728 86.7548 56.12H82.3148C82.3148 55.656 82.1068 55.328 81.6908 55.136C81.4028 54.976 81.0428 54.896 80.6108 54.896C79.4588 54.896 78.8828 55.168 78.8828 55.712C78.8828 56.016 79.0828 56.232 79.4828 56.36C79.8828 56.488 80.5388 56.624 81.4508 56.768C82.5708 56.928 83.5068 57.12 84.2588 57.344C85.0108 57.552 85.6668 57.936 86.2268 58.496C86.7868 59.04 87.0668 59.808 87.0668 60.8C87.0668 62.416 86.4588 63.568 85.2428 64.256C84.0428 64.944 82.4668 65.288 80.5148 65.288C79.3948 65.288 78.3388 65.136 77.3468 64.832C76.3548 64.512 75.5468 64.024 74.9228 63.368C74.2988 62.712 73.9868 61.88 73.9868 60.872H78.4268V60.968C78.4428 61.512 78.6668 61.896 79.0988 62.12C79.5468 62.328 80.0188 62.432 80.5148 62.432C81.8428 62.432 82.5068 62.12 82.5068 61.496C82.5068 61.176 82.2988 60.944 81.8828 60.8C81.4668 60.656 80.7868 60.504 79.8428 60.344C78.7068 60.152 77.7708 59.944 77.0348 59.72C76.3148 59.496 75.6828 59.12 75.1388 58.592C74.5948 58.048 74.3228 57.296 74.3228 56.336C74.3228 54.784 74.9068 53.68 76.0748 53.024C77.2588 52.368 78.7948 52.04 80.6828 52.04Z" fill="#393939"/>
</svg>
