<svg width="23" height="25" viewBox="0 0 23 25" fill="none" xmlns="http://www.w3.org/2000/svg">
<g clip-path="url(#clip0_454_15)">
<path d="M17.9228 10.1563C17.9228 12.3975 17.2808 14.4678 16.1994 16.1475L21.6538 22.334C22.1924 22.9443 22.1924 23.9355 21.6538 24.5459C21.1153 25.1563 20.2407 25.1563 19.7021 24.5459L14.2478 18.3594C12.7657 19.5898 10.9389 20.3125 8.9614 20.3125C4.01109 20.3125 0 15.7666 0 10.1563C0 4.5459 4.01109 0 8.9614 0C13.9117 0 17.9228 4.5459 17.9228 10.1563ZM8.9614 17.1875C9.77612 17.1875 10.5829 17.0056 11.3356 16.6523C12.0883 16.2989 12.7722 15.781 13.3483 15.1281C13.9244 14.4752 14.3814 13.7001 14.6932 12.847C15.005 11.9939 15.1654 11.0796 15.1654 10.1563C15.1654 9.23289 15.005 8.31858 14.6932 7.46551C14.3814 6.61244 13.9244 5.83732 13.3483 5.18441C12.7722 4.53149 12.0883 4.01358 11.3356 3.66022C10.5829 3.30687 9.77612 3.125 8.9614 3.125C8.14667 3.125 7.33992 3.30687 6.58721 3.66022C5.8345 4.01358 5.15057 4.53149 4.57448 5.18441C3.99838 5.83732 3.54139 6.61244 3.22961 7.46551C2.91782 8.31858 2.75735 9.23289 2.75735 10.1563C2.75735 11.0796 2.91782 11.9939 3.22961 12.847C3.54139 13.7001 3.99838 14.4752 4.57448 15.1281C5.15057 15.781 5.8345 16.2989 6.58721 16.6523C7.33992 17.0056 8.14667 17.1875 8.9614 17.1875Z" fill="#393939"/>
</g>
<defs>
<clipPath id="clip0_454_15">
<rect width="22.0588" height="25" fill="white"/>
</clipPath>
</defs>
</svg>
