<svg width="15" height="15" viewBox="0 0 15 18" fill="none" xmlns="http://www.w3.org/2000/svg">
<g clip-path="url(#clip0_86_772)">
<path d="M4.83105 0.864843C4.60547 0.210937 4.01074 -0.13711 3.44238 0.049218L0.864258 0.892968C0.354492 1.06172 0 1.61719 0 2.25C0 10.9477 5.87695 18 13.125 18C13.6523 18 14.1152 17.5746 14.2559 16.9629L14.959 13.8691C15.1143 13.1871 14.8242 12.4734 14.2793 12.2027L11.4668 10.7965C10.9893 10.5574 10.4355 10.7227 10.1104 11.2043L8.92676 12.9375C6.86426 11.7668 5.19434 9.76289 4.21875 7.28789L5.66309 5.87109C6.06445 5.47734 6.20215 4.81641 6.00293 4.24336L4.83105 0.868359V0.864843Z" fill="#6A421B"/>
</g>
<defs>
<clipPath id="clip0_86_772">
<rect width="15" height="18" fill="white"/>
</clipPath>
</defs>
</svg>
