<svg width="30" height="30" viewBox="0 0 30 30" fill="none" xmlns="http://www.w3.org/2000/svg">
<path d="M4.72003 1.22342C0.855557 3.38412 -0.0393723 5.88857 0.00130629 14.5314C0.0419849 21.6027 0.448771 23.2724 2.68609 25.875C5.24885 28.8705 8.25907 30 13.5473 30C18.5508 30 23.3915 28.4286 24.8559 26.317C25.1407 25.9241 25.5068 25.5804 25.7102 25.5804C26.1983 25.5804 27.7034 23.7143 27.7034 23.125C27.7034 22.8304 27.8662 22.634 28.0696 22.634C28.8018 22.634 29.4933 19.3929 29.4119 16.2501C29.3713 14.4823 29.534 12.4689 29.7781 11.7323C30.1442 10.701 30.0628 10.0135 29.4933 8.44212C28.6797 6.23231 26.7678 4.95554 24.1237 4.95554C22.6593 4.95554 18.266 3.08948 18.0219 2.35288C17.9406 2.15645 17.6151 2.00913 17.3304 2.00913C17.0456 2.00913 16.0287 1.56717 15.0524 1.02699C12.4083 -0.397104 7.44549 -0.347997 4.72003 1.22342ZM13.3032 3.18769C14.1981 3.58055 15.7846 4.46447 16.8016 5.10286C18.7948 6.37963 23.3102 7.90194 25.1814 7.90194C27.1746 7.90194 27.9475 10.0135 26.8085 12.4198C26.0356 13.9421 23.6356 16.5938 22.2118 17.4287C18.3067 19.6876 17.3711 19.9331 13.2625 19.884C9.68282 19.8349 8.9506 19.6876 7.07939 18.509C5.89971 17.7724 4.3946 16.3974 3.74374 15.3662C2.68609 13.893 2.4827 13.1564 2.4827 10.9957C2.4827 6.62517 3.54035 4.56268 6.42853 3.28591C8.50314 2.40198 11.2693 2.35288 13.3032 3.18769ZM26.7678 19.7858C25.8729 22.0938 24.2864 23.6652 20.9508 25.5804C18.3067 27.1027 17.8999 27.2009 13.4659 27.25C9.23535 27.25 8.62517 27.1518 6.95735 26.0715C4.59799 24.5 3.78442 23.6652 3.0522 22.0447C2.15727 20.0313 2.31999 19.0492 3.41831 19.4911C3.90645 19.6385 4.59799 20.0804 4.92342 20.3751C6.18446 21.6518 9.92689 22.634 13.3439 22.634C17.4931 22.634 21.561 21.4554 23.961 19.5894C24.9373 18.8528 25.8729 18.2144 26.117 18.2144C26.3204 18.2144 26.4831 17.9688 26.4831 17.6251C26.4831 17.1831 26.6051 17.1831 26.9306 17.576C27.2967 18.0179 27.256 18.5581 26.7678 19.7858Z" fill="#6C1D0B"/>
<path d="M7.16071 5.54482C4.96407 6.47784 4.5166 7.31266 4.5166 10.3082C4.55728 14.5314 6.26578 16.4465 10.6184 17.1831C14.3608 17.7724 18.7134 17.0849 20.8694 15.5135C21.8457 14.826 22.944 14.1385 23.3508 13.9912C23.7169 13.7948 24.0423 13.451 24.0423 13.2055C24.0423 12.9599 24.3271 12.4198 24.6525 12.0269C25.5068 10.9957 25.4254 10.3573 24.4491 10.3573C22.5779 10.3573 16.232 7.90194 15.4998 6.91981C15.3778 6.77249 14.4829 6.23231 13.4659 5.79035C11.3913 4.85732 8.99125 4.75911 7.16071 5.54482ZM19.2423 11.6832C20.1779 12.6653 20.1779 13.2546 19.2829 14.0894C17.9405 15.3171 14.6863 14.5314 14.6863 13.0582C14.6863 12.8126 14.971 12.2233 15.3778 11.7323C16.1914 10.6519 18.2253 10.6028 19.2423 11.6832Z" fill="#6C1D0B"/>
</svg>
