<svg width="12" height="15" viewBox="0 0 12 15" fill="none" xmlns="http://www.w3.org/2000/svg">
<path d="M6 1C4.67392 1 3.40215 1.52678 2.46447 2.46447C1.52678 3.40215 1 4.67392 1 6V7H2C2.26522 7 2.51957 7.10536 2.70711 7.29289C2.89464 7.48043 3 7.73478 3 8V11C3 11.2652 2.89464 11.5196 2.70711 11.7071C2.51957 11.8946 2.26522 12 2 12H1C0.734784 12 0.48043 11.8946 0.292893 11.7071C0.105357 11.5196 0 11.2652 0 11V6C-1.17411e-08 5.21207 0.155195 4.43185 0.456723 3.7039C0.758251 2.97595 1.20021 2.31451 1.75736 1.75736C2.31451 1.20021 2.97595 0.758251 3.7039 0.456723C4.43185 0.155195 5.21207 0 6 0C6.78793 0 7.56815 0.155195 8.2961 0.456723C9.02405 0.758251 9.68549 1.20021 10.2426 1.75736C10.7998 2.31451 11.2417 2.97595 11.5433 3.7039C11.8448 4.43185 12 5.21207 12 6V12C12 12.663 11.7366 13.2989 11.2678 13.7678C10.7989 14.2366 10.163 14.5 9.5 14.5H7.366C7.27823 14.652 7.152 14.7783 6.99999 14.866C6.84797 14.9538 6.67553 15 6.5 15H5.5C5.23478 15 4.98043 14.8946 4.79289 14.7071C4.60536 14.5196 4.5 14.2652 4.5 14C4.5 13.7348 4.60536 13.4804 4.79289 13.2929C4.98043 13.1054 5.23478 13 5.5 13H6.5C6.67553 13 6.84797 13.0462 6.99999 13.134C7.152 13.2217 7.27823 13.348 7.366 13.5H9.5C9.89782 13.5 10.2794 13.342 10.5607 13.0607C10.842 12.7794 11 12.3978 11 12H10C9.73478 12 9.48043 11.8946 9.29289 11.7071C9.10536 11.5196 9 11.2652 9 11V8C9 7.73478 9.10536 7.48043 9.29289 7.29289C9.48043 7.10536 9.73478 7 10 7H11V6C11 5.34339 10.8707 4.69321 10.6194 4.08658C10.3681 3.47995 9.99983 2.92876 9.53553 2.46447C9.07124 2.00017 8.52004 1.63188 7.91342 1.3806C7.30679 1.12933 6.65661 1 6 1Z" fill="#DDDDDD"/>
</svg>
